<?xml version="1.0" encoding="UTF-8"?>
<svg width="390px" height="390px" viewBox="0 0 390 390" version="1.1" xmlns="http://www.w3.org/2000/svg" xmlns:xlink="http://www.w3.org/1999/xlink">
    <!-- Generator: Sketch 50.2 (55047) - http://www.bohemiancoding.com/sketch -->
    <title>arrows</title>
    <desc>Created with Sketch.</desc>
    <defs>
        <linearGradient x1="-22.9709453%" y1="45.9700783%" x2="78.3906547%" y2="45.9700793%" id="linearGradient-1">
            <stop stop-color="#162726" stop-opacity="0.910336886" offset="0%"></stop>
            <stop stop-color="#767162" offset="100%"></stop>
        </linearGradient>
    </defs>
    <g id="arrows" stroke="none" stroke-width="1" fill="none" fill-rule="evenodd">
        <polygon id="Path-2" fill="url(#linearGradient-1)" points="105 115 125.183537 115 185.346505 191.434631 125.183537 274.661262 105 274.661262 165.218594 191.467463"></polygon>
        <polygon id="Path-2-Copy" fill="url(#linearGradient-1)" points="125 115 145.183537 115 205.346505 191.434631 145.183537 274.661262 125 274.661262 185.218594 191.467463"></polygon>
        <polygon id="Path-2-Copy-2" fill="url(#linearGradient-1)" points="145 115 165.183537 115 225.346505 191.434631 165.183537 274.661262 145 274.661262 205.218594 191.467463"></polygon>
        <polygon id="Path-2-Copy-3" fill="url(#linearGradient-1)" points="165 115 185.183537 115 245.346505 191.434631 185.183537 274.661262 165 274.661262 225.218594 191.467463"></polygon>
        <polygon id="Path-2-Copy-4" fill="url(#linearGradient-1)" points="185 115 205.183537 115 265.346505 191.434631 205.183537 274.661262 185 274.661262 245.218594 191.467463"></polygon>
        <polygon id="Path-2-Copy-5" fill="url(#linearGradient-1)" points="205 115 225.183537 115 285.346505 191.434631 225.183537 274.661262 205 274.661262 265.218594 191.467463"></polygon>
    </g>
</svg>