<?xml version="1.0" encoding="UTF-8"?>
<svg width="44px" height="44px" viewBox="0 0 44 44" version="1.1" xmlns="http://www.w3.org/2000/svg" xmlns:xlink="http://www.w3.org/1999/xlink">
    <!-- Generator: Sketch 50.2 (55047) - http://www.bohemiancoding.com/sketch -->
    <title>icon-dribble</title>
    <desc>Created with Sketch.</desc>
    <defs></defs>
    <g id="Layout" stroke="none" stroke-width="1" fill="none" fill-rule="evenodd">
        <path d="M22.1139516,0 C35.6789364,0.185883804 43.8824492,11.0546501 44,21.9333616 C43.9117988,34.1972755 34.1903776,43.8490427 22.0125655,44 C9.99755306,43.7794644 0.306608992,34.6480019 4.28996588e-07,22.1059766 C-0.00229683796,9.95827949 9.22199573,0.0643675919 22.1139516,0 Z M17.6009781,3.75497319 C19.3361431,6.03089788 23.0086674,11.5672913 24.6139699,14.7525044 C28.0823717,13.356642 31.9044661,11.30994 34.4470092,7.97457647 C27.779272,2.05203862 19.7961584,3.13355458 17.6009781,3.75497319 Z M26.0869316,17.5559074 C26.7095484,18.7817722 27.1059296,19.8450655 27.7201665,21.1966231 C30.7606597,20.9414955 33.9636776,20.6816208 40.7349557,21.7994208 C40.7129904,15.551429 37.2361752,10.973871 36.5348616,10.2135754 C32.915002,14.4402118 28.9138704,16.314499 26.0869316,17.5559074 Z M28.8911611,24.2045657 C30.371505,28.5934583 31.5026448,32.1936782 32.5135013,37.5105691 C37.042658,34.5454472 39.8951836,29.4200394 40.4954093,25.0121414 C38.2494746,24.3355483 34.4270002,23.462441 28.8911611,24.2045657 Z M10.5348444,36.7910202 C14.8412144,40.3761402 22.4549202,42.2699674 29.3031901,39.2704392 C28.0611212,32.97498 27.0844161,29.9422315 25.2947711,25.1049864 C21.0882639,26.4815875 14.0134816,30.3207618 10.5348444,36.7910202 Z M24.0293885,21.9184444 C23.8047568,21.3848709 22.7590281,19.1551991 22.5124086,18.8092088 C22.0831025,18.8359701 14.4261756,21.4503402 3.28410895,21.4737769 C3.30092261,23.4895974 3.14065941,28.8421451 8.05019021,34.5304357 C8.30895807,34.1059337 13.6131848,25.0145076 24.0293885,21.9184444 Z M3.69513364,18.1381347 C7.46950944,18.0166561 14.23809,17.7720758 20.9321706,15.8369308 C19.7184636,13.7026992 16.5254127,8.31776185 14.0220173,5.07230521 C9.27038565,7.15740843 4.86959154,12.0774645 3.69513364,18.1381347 Z" id="icon-dribble" fill="#F7E8D3"></path>
    </g>
</svg>