<?xml version="1.0" encoding="UTF-8"?>
<svg width="44px" height="44px" viewBox="0 0 44 44" version="1.1" xmlns="http://www.w3.org/2000/svg" xmlns:xlink="http://www.w3.org/1999/xlink">
    <!-- Generator: Sketch 50.2 (55047) - http://www.bohemiancoding.com/sketch -->
    <title>icon-email</title>
    <desc>Created with Sketch.</desc>
    <defs></defs>
    <g id="Layout" stroke="none" stroke-width="1" fill="none" fill-rule="evenodd">
        <g id="icon-email">
            <path d="M36.9874939,16.2439599 L22.0641737,24.8386427 L7.00444031,16.2544708 L7,14 C7.00272033,12.0262802 9.05800952,10.9837604 11,11 L34.0014303,11 C36.0320985,11.0327745 37.0044026,12.1231687 37,14 L36.9874939,16.2439599 Z" id="Shape" fill="#F2EBE3"></path>
            <polygon id="Path-2" fill="#DBC8B4" points="7 16.2582972 7.00592041 27.6728058 17.3573271 22.1649487"></polygon>
            <polygon id="Path-2-Copy" fill="#DBC8B4" points="36.998945 16.2668623 26.6001667 22.2431036 36.9878663 27.65564"></polygon>
            <path d="M37.00286,29.019686 C37.0039678,28.9987779 37.0022284,28.5511714 36.9976417,27.6768665 L26.5902129,22.2582831 L22.0611046,24.8612461 L17.3669562,22.1766132 L7.00492859,27.6794281 C6.99930475,28.5855438 6.99739179,29.0377598 6.99918969,29.0360763 C7.00757687,31.0281975 8.99825852,33.0174538 11.0082385,32.9993306 C11.1379699,33.0028256 33.021272,33.0084166 33.0235992,32.9984419 C34.9939511,33.0049017 37.0067944,31.0278296 37.00286,29.019686 Z" id="Shape" fill="#A4978E" fill-rule="nonzero"></path>
            <path d="M22.000088,0 C9.849576,0 0,9.849576 0,22.000088 C0,34.150776 9.849576,44 22.000088,44 C34.150424,44 44,34.150776 44,22.000088 C44,9.849576 34.150424,0 22.000088,0 Z M21.9999545,41 C11.5232039,41 3,32.4764324 3,21.9999545 C3,11.5235676 11.5232039,3 21.9999545,3 C32.4763415,3 40.9996363,11.5235676 40.9996363,21.9999545 C40.9996363,32.4764324 32.4764324,41 21.9999545,41 Z" id="Shape" fill="#F7E8D3" fill-rule="nonzero"></path>
            <polygon id="Path-15" fill="#0D1A1E" points="7.04072922 17.0274363 15.0264913 22.0873566 7.00463954 26.5482374 7 28.5059183 16.6959459 23.0636193 22.0125448 26.4307618 27.6904088 23.0000327 37 28.0094454 37 26.0958888 29.1558462 22.0354317 37.0019142 17.2069027 37.0023726 15.0302963 22.0382193 24.0961327 6.99535741 15.0141563"></polygon>
        </g>
    </g>
</svg>