<?xml version="1.0" encoding="UTF-8"?>
<svg width="44px" height="44px" viewBox="0 0 44 44" version="1.1" xmlns="http://www.w3.org/2000/svg" xmlns:xlink="http://www.w3.org/1999/xlink">
    <!-- Generator: Sketch 50.2 (55047) - http://www.bohemiancoding.com/sketch -->
    <title>icon-linkedin</title>
    <desc>Created with Sketch.</desc>
    <defs></defs>
    <g id="Layout" stroke="none" stroke-width="1" fill="none" fill-rule="evenodd">
        <g id="icon-linkedin" fill="#F7E8D3">
            <path d="M13.0009691,9 C14.6553061,9 16,10.2405303 16,11.7674401 C16,13.2959147 14.6553061,14.536445 13.0009691,14.536445 C11.342271,14.536445 10,13.2959147 10,11.7674401 C10,10.2405303 11.342271,9 13.0009691,9 Z M10.4123728,32 L15.5873849,32 L15.5873849,16.6365607 L10.4123728,16.6365607 L10.4123728,32 Z" id="Fill-4"></path>
            <path d="M24.5908234,16.6400003 L24.6136002,18.5214255 L24.6780127,18.5214255 C25.3201105,17.293994 26.8894327,16 29.2294526,16 C34.1007027,16 35,19.233622 35,23.4363765 L35,32 L30.1929371,32 L30.1929371,24.4077808 C30.1929371,22.5974159 30.15983,20.2686355 27.6932374,20.2686355 C25.1906099,20.2686355 24.806162,22.2407497 24.806162,24.2767003 L24.806162,32 L20,32 L20.027331,16.6416375 L24.5908234,16.6400003 Z" id="Fill-5"></path>
            <path d="M22.000088,0 C9.849576,0 0,9.849576 0,22.000088 C0,34.150776 9.849576,44 22.000088,44 C34.150424,44 44,34.150776 44,22.000088 C44,9.849576 34.150424,0 22.000088,0 Z M21.9999545,41 C11.5232039,41 3,32.4764324 3,21.9999545 C3,11.5235676 11.5232039,3 21.9999545,3 C32.4763415,3 40.9996363,11.5235676 40.9996363,21.9999545 C40.9996363,32.4764324 32.4764324,41 21.9999545,41 Z" id="Shape" fill-rule="nonzero"></path>
        </g>
    </g>
</svg>