<?xml version="1.0" encoding="UTF-8"?>
<svg width="44px" height="44px" viewBox="0 0 44 44" version="1.1" xmlns="http://www.w3.org/2000/svg" xmlns:xlink="http://www.w3.org/1999/xlink">
    <!-- Generator: Sketch 50.2 (55047) - http://www.bohemiancoding.com/sketch -->
    <title>icon-codepen</title>
    <desc>Created with Sketch.</desc>
    <defs></defs>
    <g id="Layout" stroke="none" stroke-width="1" fill="none" fill-rule="evenodd">
        <g id="icon-codepen" fill="#F7E8D3" fill-rule="nonzero">
            <path d="M22.000088,0 C9.849576,0 0,9.849576 0,22.000088 C0,34.150776 9.849576,44 22.000088,44 C34.150424,44 44,34.150776 44,22.000088 C44,9.849576 34.150424,0 22.000088,0 Z M21.9999545,41 C11.5232039,41 3,32.4764324 3,21.9999545 C3,11.5235676 11.5232039,3 21.9999545,3 C32.4763415,3 40.9996363,11.5235676 40.9996363,21.9999545 C40.9996363,32.4764324 32.4764324,41 21.9999545,41 Z" id="Shape"></path>
            <path d="M36.9884525,17.5773839 C36.9857355,17.5597231 36.9810777,17.5427869 36.9778755,17.5251261 C36.971568,17.4912537 36.9647754,17.4573813 36.9553628,17.4242334 C36.9498316,17.4043084 36.9419716,17.3851986 36.9353731,17.3660888 C36.9250871,17.3365636 36.9148011,17.307129 36.9021863,17.2784189 C36.8933558,17.258494 36.8831669,17.2386596 36.8733661,17.2194592 C36.8597809,17.1922888 36.8457105,17.1657524 36.8295052,17.1400311 C36.8176666,17.1208306 36.8051488,17.1023548 36.7929221,17.08406 C36.7754553,17.0589727 36.7577945,17.0346099 36.738387,17.0110622 C36.7242196,16.993492 36.7092758,16.9757407 36.694332,16.9588045 C36.6737601,16.9367965 36.6524119,16.9146979 36.6298992,16.8939578 C36.6130147,16.8778367 36.5963242,16.861625 36.5786634,16.8467719 C36.5549863,16.8269375 36.5305328,16.8077371 36.5056912,16.7894424 C36.4864778,16.7754043 36.4673615,16.7613663 36.4472747,16.7481434 C36.4397058,16.7437055 36.4331072,16.7378186 36.4259265,16.7333808 L22.7149234,8.20214776 C22.2817482,7.93261741 21.7179607,7.93261741 21.2847855,8.20214776 L7.57387946,16.7332902 C7.56679573,16.737728 7.56010014,16.743615 7.55262826,16.7480528 C7.53244447,16.7612757 7.51352217,16.7753138 7.49459987,16.7893518 C7.46937013,16.8077371 7.44491669,16.8269375 7.42162771,16.8466813 C7.4034817,16.8615345 7.38698534,16.8776556 7.36990675,16.8938673 C7.3474911,16.9146073 7.32614286,16.9367059 7.30605611,16.9587139 C7.29062715,16.9757407 7.27568339,16.9934015 7.26151592,17.0109717 C7.24259362,17.0345193 7.22435058,17.0588821 7.20746606,17.0839695 C7.19446304,17.1023548 7.18223632,17.1207401 7.17039776,17.1399405 C7.15458065,17.1656618 7.14041319,17.1921982 7.12663387,17.2193686 C7.11673605,17.2384785 7.10645008,17.2584034 7.09781375,17.2783284 C7.08519888,17.3070384 7.07491291,17.336473 7.06472398,17.3659982 C7.05793136,17.385108 7.05055651,17.4042179 7.04454019,17.4241428 C7.03512756,17.4572907 7.02882012,17.4911632 7.02212454,17.5250356 C7.01901934,17.5426963 7.0142645,17.5596326 7.01183857,17.5772933 C7.00436669,17.6288265 7,17.6810842 7,17.7341571 L7,26.2653901 C7,26.3183724 7.00426965,26.3706301 7.01183857,26.4229784 C7.0142645,26.4400052 7.01901934,26.4575754 7.02212454,26.474421 C7.02882012,26.5082934 7.03512756,26.5421659 7.04454019,26.5753138 C7.05055651,26.5952387 7.05793136,26.6144391 7.06472398,26.633549 C7.07491291,26.662893 7.08519888,26.6924182 7.09781375,26.7218528 C7.10645008,26.7419589 7.11673605,26.7610687 7.12663387,26.7802691 C7.14051022,26.8074395 7.15467769,26.8338854 7.17039776,26.8604218 C7.18223632,26.8788977 7.19446304,26.8971924 7.20746606,26.9156683 C7.22435058,26.940665 7.24259362,26.9650278 7.26151592,26.9886661 C7.27568339,27.0070514 7.29072419,27.0240781 7.30605611,27.0409238 C7.3262399,27.0629318 7.3474911,27.085121 7.36990675,27.1057705 C7.3868883,27.1218916 7.4034817,27.1381032 7.42162771,27.1528658 C7.44491669,27.1728814 7.46937013,27.1919912 7.49459987,27.2103765 C7.51352217,27.2244145 7.53254151,27.2384526 7.55262826,27.2514944 C7.56010014,27.2560228 7.56679573,27.2619097 7.57387946,27.266257 L21.2847855,35.79749 C21.501276,35.9321646 21.7507593,36 22.0000485,36 C22.2490466,36 22.4983358,35.9321646 22.7150204,35.79749 L36.4259265,27.266257 C36.4331072,27.2619097 36.4397058,27.2560228 36.4472747,27.2514944 C36.4673615,27.238362 36.4863808,27.2244145 36.5056912,27.2103765 C36.5305328,27.1919912 36.5549863,27.1728814 36.5786634,27.1528658 C36.5964213,27.1381938 36.6130147,27.1218916 36.6298992,27.1057705 C36.6524119,27.085121 36.6737601,27.0629318 36.694332,27.0409238 C36.7092758,27.0239876 36.7242196,27.0070514 36.738387,26.9886661 C36.7577945,26.9650278 36.7755524,26.9407556 36.7929221,26.9156683 C36.8051488,26.8971924 36.8176666,26.8788977 36.8295052,26.8604218 C36.8457105,26.8338854 36.8597809,26.8074395 36.8733661,26.7802691 C36.8831669,26.7610687 36.8933558,26.7419589 36.9021863,26.7218528 C36.9148011,26.6925087 36.9249901,26.6629836 36.9353731,26.633549 C36.9419716,26.6144391 36.9498316,26.5952387 36.9553628,26.5753138 C36.9648724,26.5421659 36.971568,26.5082934 36.9778755,26.474421 C36.9810777,26.4574848 36.9857355,26.4399146 36.9884525,26.4229784 C36.9955363,26.3706301 37,26.3183724 37,26.2653901 L37,17.7341571 C37,17.6811748 36.9955363,17.6289171 36.9884525,17.5773839 Z M23,11 L33,17.2143795 L28.5332987,20 L23,16.5494776 L23,11 Z M21,11 L21,16.5494776 L15.4670426,20 L11,17.2143795 L21,11 Z M10,20 L13,21.99991 L10,24 L10,20 Z M21,32 L11,25.7850361 L15.4670426,23 L21,26.4501702 L21,32 Z M21.5001437,25 L17,21.9999523 L21.5001437,19 L26,21.9999523 L21.5001437,25 Z M23,32 L23,26.4501702 L28.5332987,23 L33,25.7850361 L23,32 Z M34,24 L31,21.99991 L34,20 L34,24 Z" id="Shape"></path>
        </g>
    </g>
</svg>