<?xml version="1.0" encoding="UTF-8"?>
<svg width="390px" height="390px" viewBox="0 0 390 390" version="1.1" xmlns="http://www.w3.org/2000/svg" xmlns:xlink="http://www.w3.org/1999/xlink">
    <!-- Generator: Sketch 50.2 (55047) - http://www.bohemiancoding.com/sketch -->
    <title>slide2</title>
    <desc>Created with Sketch.</desc>
    <defs>
        <radialGradient cx="50%" cy="52.6513148%" fx="50%" fy="52.6513148%" r="116.886006%" gradientTransform="translate(0.500000,0.526513),rotate(-135.982243),scale(1.000000,1.036613),translate(-0.500000,-0.526513)" id="radialGradient-1">
            <stop stop-color="#A2A2A2" offset="0%"></stop>
            <stop stop-color="#5C666A" offset="25.4586538%"></stop>
            <stop stop-color="#25373E" offset="43.7998318%"></stop>
            <stop stop-color="#23353C" offset="65.9027276%"></stop>
            <stop stop-color="#1C2835" offset="100%"></stop>
        </radialGradient>
        <linearGradient x1="121.03317%" y1="85.6831513%" x2="-6.69134061%" y2="78.2230537%" id="linearGradient-2">
            <stop stop-color="#685457" offset="0%"></stop>
            <stop stop-color="#372A2C" offset="100%"></stop>
        </linearGradient>
        <text id="text-3" font-family="CooperBlackMS, Cooper Black" font-size="18.3529412" font-weight="700" letter-spacing="2.06470583" fill="#E0E0E0">
            <tspan x="-38.5428765" y="79.0882353">Boston Beans</tspan>
            <tspan x="17.7284238" y="100.088235">Co.</tspan>
        </text>
        <filter x="-1.3%" y="-2.4%" width="102.7%" height="109.5%" filterUnits="objectBoundingBox" id="filter-4">
            <feOffset dx="0" dy="1" in="SourceAlpha" result="shadowOffsetOuter1"></feOffset>
            <feGaussianBlur stdDeviation="0.5" in="shadowOffsetOuter1" result="shadowBlurOuter1"></feGaussianBlur>
            <feColorMatrix values="0 0 0 0 0.0509803922   0 0 0 0 0.101960784   0 0 0 0 0.117647059  0 0 0 1 0" type="matrix" in="shadowBlurOuter1"></feColorMatrix>
        </filter>
    </defs>
    <g id="slide2" stroke="none" stroke-width="1" fill="none" fill-rule="evenodd">
        <rect id="Rectangle" fill="url(#radialGradient-1)" x="0" y="0" width="390" height="390"></rect>
        <g id="Group" transform="translate(28.676471, 51.617647)">
            <polygon id="Path-53" stroke="#1C1B1B" stroke-width="9.17647059" fill="#372A2C" points="0 0 0 169.7618 216.791072 169.764688 216.792875 74.2346099 216.795728 0"></polygon>
            <path d="M0,71.1882178 C74.8359141,32.689231 109.830416,27.7864489 104.983505,56.4798715 C97.7131395,99.5200055 214.257242,66.0583898 194.548079,33.1944909 C181.408637,11.285225 188.825052,3.85548161 216.797326,10.9052609 L216.841709,0 L0,0 L0,71.1882178 Z" id="Path-66" fill="#943126" opacity="0.378348214"></path>
            <path d="M118.742558,78.0899149 C122.050995,73.5756708 122.672768,69.6309342 122.747362,65.6098398 C122.817338,61.5887454 131.316911,51.4995765 135.077141,46.2925926 C139.308577,40.8093254 147.48484,29.6655281 150.428505,25.568855 C152.029533,23.3122588 156.473485,17.1640337 157.960399,15.1310236 C159.366475,14.6415786 160.584702,13.5697846 161.614807,11.9156418 C161.951466,10.7074272 162.412427,9.50653955 162.997775,8.3129788 C157.137161,7.91112439 147.481783,8.01331813 147.44691,8.15358505 C147.049715,8.51375691 143.554069,11.5205624 142.271213,12.717529 C141.41605,13.5155068 140.998212,14.3935993 141.017453,15.3518067 C137.404992,19.4397078 135.341173,21.7748111 134.825683,22.3571165 C132.110963,25.3375123 120.294903,38.4615994 114.327853,45.2582638 C108.866707,51.7673726 108.245121,52.1425125 105.016638,55.8859103 C97.5496013,64.6460333 89.0116627,68.4626667 84.9772998,71.7676699 C82.2886169,73.9710055 79.3822505,76.8155178 76.2579483,80.3012071 C42.6070371,121.767813 25.5846924,142.747431 25.1900828,143.24006 C22.5969111,146.422635 23.4318653,145.195529 22.8053665,146.045004 C17.5280044,151.93226 15.634885,155.817379 15.0259174,158.625474 C12.8524211,164.302988 42.3414156,164.074736 50.2526082,159.28673 C55.0766696,155.951098 57.216103,153.827111 62.8793611,147.342309 C63.3986696,146.694012 63.7543671,146.206695 63.9464489,145.880356 C97.8680067,103.816933 116.131655,81.2201194 118.742558,78.0899149 Z" id="Path-62-Copy-2" fill="#943126"></path>
            <path d="M50.986503,79.2369737 C50.588788,74.7227296 47.8675253,70.777993 44.512881,66.7568986 C41.1582367,62.7358042 41.4432886,52.6466353 40.9373857,47.4396514 C40.6884503,41.9563843 39.7441872,30.8125869 39.3335489,26.7159138 C39.0863905,24.4593176 38.4988468,18.3110926 38.3229282,16.2780825 C39.3664858,15.7886374 39.7235086,14.7168435 39.3939965,13.0627007 C38.7230002,11.8544861 38.1871368,10.6535984 37.7864063,9.46003762 C31.3829115,9.05818321 21.477215,9.16037696 21.5589911,9.30064387 C21.4505968,9.66081573 20.359014,12.6676212 20.0367388,13.8645879 C19.8218887,14.6625656 20.1274191,15.5406582 20.9533299,16.4988656 C20.6489739,20.5867667 20.4746109,22.9218699 20.4302408,23.5041753 C20.1237967,26.4845711 18.9142291,39.6086583 18.4441618,46.4053226 C18.2572401,52.9144314 17.9264187,53.2895714 17.7268898,57.0329691 C17.3510164,65.7930922 11.6589073,69.6097255 10.2393191,72.9147288 C9.29292693,75.1180643 8.66164114,77.9625767 8.34546168,81.448266 C8.26743734,122.914872 8.23069469,143.894489 8.23523371,144.387119 C8.21806437,147.569693 8.04979673,146.342588 8.11483227,147.192063 C7.57276265,153.079319 8.90352102,156.964438 10.6738796,159.772532 C13.2559403,165.450047 44.4429514,165.221795 48.7011491,160.433789 C50.9328271,157.098157 51.3620709,154.97417 51.7488412,148.489368 C51.7377464,147.841071 51.6926396,147.353753 51.6135209,147.027415 C51.1395079,104.963992 50.930502,82.3671782 50.986503,79.2369737 Z" id="Path-62" fill="#611A1B" opacity="0.753571429"></path>
            <path d="M43.5257943,86.0294118 L48.1764706,85.985679 L48.1582908,79.2377694 C47.8195394,75.8589979 46.3294088,72.7809757 43.687899,70.0037028 C43.0994467,69.5635858 41.0150045,73.6504435 41.3254533,73.9666973 C44.0099623,75.5584418 44.7434093,79.5793466 43.5257943,86.0294118 Z" id="Path-78" fill="#F2E7E1"></path>
            <path d="M25.5135571,63.515712 C22.1669118,63.6072031 18.8905069,64.5267333 16.0588235,66.5294118 C19.3611384,63.5894379 20.3289187,40.7811456 21.2653389,26.1676304 C21.5425975,21.8408089 21.7809662,17.7799648 21.8748845,16.6771176 C23.4465508,16.973738 25.1634893,16.8194834 26.300292,16.8264119 C26.2663083,19.225392 26.1726436,26.0656427 26.1337785,27.2196743 C26.6948903,29.29315 25.9853954,58.9785273 25.5135571,63.515712 Z" id="Path-66-Copy" fill="#F2E7E1"></path>
            <path d="M10.9231186,77.4840993 C13.7244561,71.2153652 16.9657695,70.5934119 20.6470588,75.6182393 C20.5691563,81.4276714 20.4956793,85.2804151 20.4266278,87.1764706 L10.3235294,87.1000919 L10.9231186,77.4840993 Z" id="Path-74" fill="#F2E7E1"></path>
            <path d="M10.3235294,149.117647 C12.0400483,149.797131 15.0981148,150.190916 19.497729,150.299002 C19.5420223,151.390452 18.9384025,152.895453 17.6868694,154.814005 C15.308233,154.966094 13.1204197,154.672625 11.1234297,153.933597 C10.730326,152.991157 10.4636926,151.38584 10.3235294,149.117647 Z" id="Path-75" fill="#F2E7E1"></path>
            <path d="M44.7352941,148.874051 C45.5006759,148.639755 46.8588597,148.662691 48.1318511,147.970588 C48.2645745,149.66795 48.1012023,151.14189 47.6417345,152.392407 L45.0396543,153.705882 C45.2266471,151.997307 45.1251938,150.386697 44.7352941,148.874051 Z" id="Path-76" fill="#F2E7E1"></path>
            <path d="M11.4705882,160.286913 C11.4705882,160.286913 26.7495068,153.222241 48.1764706,160.286913 C27.1946755,168.707535 11.4705882,160.286913 11.4705882,160.286913 Z" id="Path-77" fill="#531708"></path>
            <path d="M42.4411765,66.5294118 C42.0826735,65.3732916 40.2137133,63.6895607 39.7520748,56.0166323 C39.3461229,51.2209954 38.4094566,38.1362207 36.9420757,16.7623081 C36.1553991,16.9130081 35.4567245,16.9723322 34.846052,16.9402803 C35.4850276,28.0592808 36.5014457,42.6557785 37.8953063,60.7297734 C38.2722616,62.7468418 39.7875517,64.6800546 42.4411765,66.5294118 Z" id="Path-79" fill="#F2E7E1"></path>
            <path d="M25.7349833,13.8305574 C25.4535656,12.9627041 25.6224386,10.562103 25.6710552,9.96388613 C24.6391532,9.67094382 23.7927766,9.71828697 22.7437749,9.87181257 C22.4929801,10.5426641 22.2311209,11.2661887 21.4980714,13.0682595 C21.0283341,14.258736 21.1642705,14.9774341 21.835482,15.3501369 C22.9390238,15.5631288 24.6432884,15.5058572 25.0368037,15.3071832 C25.4303191,15.1085091 26.016401,14.6984108 25.7349833,13.8305574 Z" id="Path-80" fill="#D8D8D8"></path>
            <path d="M35.4645969,15.2648536 C36.0900427,15.602698 38.173256,15.2672304 37.7574304,13.6158692 C37.9639887,12.819971 36.3826342,10.4574517 35.9796761,9.95717616 C35.2527921,9.52531937 35.0602935,9.76861369 35.4021801,10.6870591 C35.7170757,11.5916299 35.8745235,12.3953634 35.8745235,13.0982596 C35.8745235,14.1526039 34.9225336,14.2271035 35.4645969,15.2648536 Z" id="Path-81" fill="#D8D8D8"></path>
            <path d="M20.6470588,9.17647059 C20.8575125,7.96308277 20.9737037,7.50079147 21.2807139,6.49458914 C21.7038242,5.77869589 22.0664925,5.0732261 23.1565509,4.62175746 C27.0381533,4.63634873 33.1614449,4.61147088 35.7419891,4.58823529 C37.182491,4.94197285 37.6130491,5.14092753 38.6228908,6.49458914 C38.7612785,7.42721213 38.8587401,7.73496259 39,9.17647059 C35.1100031,8.82328343 23.5131996,8.84845531 20.6470588,9.17647059 Z" id="Path-82" fill="#8D8C94"></path>
            <path d="M23.8490677,4.50655886 C26.5310648,4.50151317 34.3486254,4.51325055 35.9517915,4.6502694 C37.0205688,4.74161531 37.6993118,5.1120517 37.9880204,5.76157858 C37.0855213,4.91468021 36.3434478,4.91566424 35.7617998,5.76453068 C35.1801519,6.61339712 34.8046472,7.59271265 34.6352859,8.70247729 L34.1945328,8.96674365 C34.2165241,7.48003371 34.1909295,6.67019531 34.1177489,6.53722844 C34.007978,6.33777813 33.5816333,5.48073147 32.8166255,6.53722844 C32.3066203,7.24155975 31.9923129,8.01007726 31.8737034,8.84278097 L31.3982228,9.17647059 C31.0053795,7.31643764 30.7731454,6.32864352 30.7015205,6.21308824 C30.5940832,6.03975531 30.4181948,5.33981696 29.8066495,6.53722844 C29.3989527,7.33550276 29.2218247,8.01171441 29.2752656,8.5658634 L28.6634953,8.99309413 C28.8750856,8.03083423 28.740121,7.20832318 28.2586016,6.52556099 C27.5363224,5.50141771 21.1670706,4.51160455 23.8490677,4.50655886 Z" id="Path-83" fill="#5D5C64"></path>
            <path d="M20.6470588,9.17647059 C20.7815114,6.76165065 21.5976371,5.23223888 23.0954358,4.58823529 C24.4807122,4.98386791 25.9560917,5.45368025 27.5215744,5.99767233 C28.3952181,6.2128227 28.7656909,7.03193671 28.6329927,8.45501435 C28.4177481,8.67955743 27.4924664,5.71822949 26.8296645,8.81539702 C26.7582454,9.14912732 26.4702327,7.56267733 26.2015035,6.87889302 C25.9327744,6.19510871 25.1775026,5.38695654 24.5883926,8.62376197 C24.2719275,8.03030463 23.0015343,5.3570049 23.2535731,8.87444877 C22.4942269,8.76376066 21.6253889,8.8644346 20.6470588,9.17647059 Z" id="Path-84" fill="#D8D8D8"></path>
            <path d="M51.6167491,146.897477 C37.9649119,150.42708 13.0251212,149.185719 8.12257012,146.84217 C8.19405225,133.660997 8.37578206,97.5519285 8.32152944,86.0722087 C19.9108563,86.5381821 36.1544269,86.7597744 50.9852634,86.0443782 C51.0868347,98.7593472 51.6363294,136.03461 51.6167491,146.897477 Z" id="Path-85" fill="#F3EDDD"></path>
            <path d="M17.5902697,133.058824 C24.9800156,133.058824 30.9705882,125.355488 30.9705882,115.852941 C30.9705882,106.350395 24.9800156,98.6470588 17.5902697,98.6470588 C10.2005239,98.6470588 8.1054811,107.483358 8.03118628,115.113014 C7.95689146,122.74267 10.2005239,133.058824 17.5902697,133.058824 Z" id="Oval-9" stroke="#073C64" stroke-width="1.14705882" fill="#ABD5FD"></path>
            <g id="Group-2" transform="translate(10.323529, 105.529412)" fill="url(#linearGradient-2)">
                <path d="M1.76528263,13.2966173 L1.5467809,13.3010449 C1.3935028,13.3069483 1.28153537,13.3158032 1.21087525,13.3276101 C1.14782469,13.3423686 1.1027116,13.3497477 1.07553463,13.3497477 C1.00922283,13.3497477 0.9565003,13.303997 0.917365466,13.2124942 C0.87931771,13.1209914 0.860294118,13.0117801 0.860294118,12.8848568 C0.860294118,12.8022091 0.867360023,12.7372727 0.881492047,12.6900454 C0.89562407,12.6428182 0.929866537,12.5690267 0.984220473,12.4686688 C1.01574576,12.4096347 1.037487,12.3173954 1.04944487,12.191948 C1.06140274,12.0665007 1.07444749,11.7971618 1.08857951,11.3839234 C1.10923401,10.7404521 1.1195611,9.9479318 1.1195611,9.00633856 C1.1195611,8.66098932 1.11113636,8.43149786 1.09428664,8.31785729 C1.07743692,8.20421673 1.03803091,8.11050157 0.976067423,8.03670899 C0.904320227,7.95406131 0.868447167,7.83304331 0.868447167,7.67365135 C0.868447167,7.54377642 0.88991665,7.43751671 0.93285626,7.35486902 C0.97579587,7.27222134 1.03096429,7.23089812 1.09836317,7.23089812 C1.13532385,7.23089812 1.18261106,7.23532561 1.24022623,7.24418072 C1.33588916,7.25598753 1.43916009,7.26189085 1.55004212,7.26189085 C1.63157303,7.26189085 1.79191473,7.25303587 2.03107205,7.23532565 C2.10608049,7.22942225 2.17402189,7.22647059 2.2348983,7.22647059 C2.37947977,7.22647059 2.49606721,7.25820092 2.58466413,7.32166253 C2.67326105,7.38512415 2.75017071,7.49212177 2.81539544,7.64265862 C2.92192915,7.88764997 2.97519521,8.21528408 2.97519521,8.62557079 C2.97519521,8.82923829 2.9594328,9.02773733 2.92790752,9.22107388 C2.89638224,9.41441042 2.8539868,9.56863458 2.80071995,9.683751 C2.76267219,9.76639868 2.7436486,9.84166598 2.7436486,9.90955514 C2.7436486,9.98334772 2.76647691,10.0453325 2.81213422,10.0955115 C2.90127467,10.1929177 2.98226082,10.3567348 3.0550951,10.5869676 C3.13010353,10.8260555 3.16760718,11.1256489 3.16760718,11.4857566 C3.16760718,11.9108019 3.11053641,12.298945 2.99639314,12.6501976 C2.8452892,13.113615 2.62189787,13.3453202 2.32621245,13.3453202 C2.28599054,13.3453202 2.18706786,13.337941 2.02944144,13.3231825 C1.88594705,13.308424 1.797895,13.299569 1.76528263,13.2966173 Z M1.70630883,8.49274482 L1.70630883,9.40481647 C1.70630883,9.54944991 1.71882668,9.65128213 1.74386276,9.71031619 C1.76889883,9.76935025 1.81246095,9.79886684 1.87455041,9.79886684 C2.02276397,9.79886684 2.13191962,9.7317166 2.20202063,9.59741412 C2.27212163,9.46311164 2.30717161,9.25280596 2.30717161,8.96649077 C2.30717161,8.68903069 2.27112021,8.47429753 2.19901631,8.32228483 C2.12691242,8.17027212 2.02476677,8.09426691 1.8925763,8.09426691 C1.82247529,8.09426691 1.77390603,8.12304559 1.74686707,8.18060379 C1.71982811,8.238162 1.70630883,8.34220797 1.70630883,8.49274482 Z M1.70630883,11.0430034 L1.70630883,11.463619 C1.70630883,11.8502921 1.72533597,12.1070864 1.7633908,12.2340096 C1.80144563,12.3609328 1.87855558,12.4243935 1.99472297,12.4243935 C2.29916163,12.4243935 2.45137868,12.1616959 2.45137868,11.6362927 C2.45137868,10.9810147 2.28113593,10.6533806 1.94064532,10.6533806 C1.85251834,10.6533806 1.79143123,10.6814213 1.75738217,10.7375037 C1.72333311,10.793586 1.70630883,10.8954183 1.70630883,11.0430034 Z M4.65768174,8.91778792 C4.73822192,8.91778792 4.78722912,8.93992536 4.80470482,8.9842009 C4.82218052,9.02847644 4.83775646,9.17015606 4.85143309,9.409244 C4.85903122,9.53911893 4.88258507,9.60405542 4.92209534,9.60405542 C4.95248786,9.60405542 4.98136033,9.56125637 5.00871359,9.47565698 C5.13028367,9.10669411 5.28908221,8.92221545 5.48511396,8.92221545 C5.62339993,8.92221545 5.73661036,9.00928938 5.82474867,9.18343985 C5.8672982,9.26903924 5.90224907,9.37898852 5.92960234,9.51329101 C5.95695561,9.64759349 5.97063204,9.77672856 5.97063204,9.90070008 C5.97063204,10.0394301 5.9539164,10.1818476 5.92048463,10.3279569 C5.88705286,10.4740662 5.84374417,10.5943463 5.79055726,10.6888008 C5.6933012,10.8688547 5.57401234,10.9588803 5.43268713,10.9588803 C5.3551862,10.9588803 5.29022316,10.9323154 5.23779607,10.8791847 C5.18536897,10.8260541 5.11660693,10.7183185 5.03150787,10.5559749 C4.99959572,10.4939891 4.96996346,10.4629967 4.94261019,10.4629967 C4.90006067,10.4629967 4.87232791,10.5094853 4.85941109,10.6024639 C4.84649427,10.6954426 4.84003595,10.89099 4.84003595,11.189112 C4.84003595,11.6348191 4.84839377,11.93884 4.86510965,12.1011836 C4.87574704,12.1897347 4.89056317,12.2509816 4.90955849,12.2849262 C4.92855382,12.3188708 4.9692032,12.3535528 5.03150787,12.3889732 C5.16827421,12.4686692 5.23665635,12.6073972 5.23665635,12.8051612 C5.23665635,12.9261811 5.21462211,13.0317029 5.17055295,13.1217298 C5.1264838,13.2117567 5.06797908,13.2715278 4.99503703,13.3010449 C4.84915293,13.3600789 4.63488888,13.3895955 4.35223845,13.3895955 C4.08326464,13.3895955 3.87887801,13.3438448 3.73907242,13.252342 C3.61446309,13.1696943 3.55215936,13.0265389 3.55215936,12.8228714 C3.55215936,12.6693828 3.59774746,12.5321307 3.68892502,12.4111109 C3.73299417,12.3550285 3.76338623,12.3041124 3.78010212,12.258361 C3.79681801,12.2126096 3.80821503,12.1498869 3.81429353,12.0701909 C3.83860755,11.8015859 3.85076438,11.3042314 3.85076438,10.5781125 C3.85076438,10.4452859 3.84316636,10.3500949 3.8279701,10.2925367 C3.81277384,10.2349785 3.78238178,10.1884899 3.736793,10.1530694 C3.62889955,10.0704217 3.57495364,9.95087956 3.57495364,9.79443931 C3.57495364,9.65275756 3.61218391,9.53100164 3.68664559,9.42916789 C3.76110726,9.32733414 3.88571472,9.22623983 4.06047171,9.12588193 C4.29449412,8.9901036 4.49356214,8.92073962 4.65768174,8.91778792 Z M8.95511716,11.3175104 L7.54308963,11.3175104 C7.48100017,11.3175104 7.4499559,11.3573578 7.4499559,11.4370538 C7.4499559,11.6289145 7.52055657,11.8097036 7.66176003,11.9794265 C7.80296349,12.1491494 7.95467982,12.2340096 8.11691359,12.2340096 C8.21305211,12.2340096 8.31970419,12.2067067 8.43687301,12.1521002 C8.55404184,12.0974937 8.65067964,12.0303435 8.7267893,11.9506475 C8.79488743,11.8798067 8.84896454,11.8443867 8.88902225,11.8443867 C8.94109729,11.8443867 8.99217011,11.8916133 9.04224226,11.9860678 C9.09231441,12.0805223 9.11735011,12.177927 9.11735011,12.2782849 C9.11735011,12.4908075 9.02722159,12.6959478 8.84696186,12.8937119 C8.528503,13.2449645 8.16097894,13.4205882 7.74437866,13.4205882 C7.32377262,13.4205882 6.97126998,13.2405371 6.68686018,12.8804293 C6.54866105,12.7033271 6.43449826,12.4893319 6.34436839,12.2384371 C6.22619812,11.9048947 6.16711387,11.5536473 6.16711387,11.1846844 C6.16711387,10.6887983 6.26925952,10.2430979 6.47355389,9.84756969 C6.64980785,9.50517215 6.87412771,9.24985368 7.1465202,9.08160661 C7.35081457,8.95468338 7.57213014,8.89122272 7.81047357,8.89122272 C8.1910219,8.89122272 8.51448313,9.05061229 8.78086695,9.36939621 C8.91506031,9.52878817 9.02321453,9.71769432 9.10533285,9.93612034 C9.19946849,10.1840634 9.24653561,10.4260994 9.24653561,10.6622356 C9.24653561,10.8540963 9.21949705,11.0112721 9.16541913,11.1337678 C9.11134121,11.2562635 9.04124126,11.3175104 8.95511716,11.3175104 Z M7.59296154,10.4895619 L7.89639724,10.4895619 C8.02458194,10.4895619 8.08867333,10.4024879 8.08867333,10.2283375 C8.08867333,10.0689455 8.05762906,9.93907253 7.9955396,9.83871463 C7.93345013,9.73835673 7.85233447,9.68817853 7.75219017,9.68817853 C7.64002856,9.68817853 7.5519029,9.75311502 7.48781055,9.88298995 C7.42772397,10.0040098 7.39768113,10.1265036 7.39768113,10.2504751 C7.39768113,10.3390262 7.41220184,10.401011 7.44124369,10.4364315 C7.47028553,10.4718519 7.52085764,10.4895619 7.59296154,10.4895619 Z M12.9316273,12.5350818 L12.622183,11.804539 C12.5500791,11.6392436 12.5035127,11.540363 12.4824824,11.5078943 C12.4614521,11.4754256 12.4339128,11.4591914 12.3998638,11.4591914 C12.3277599,11.4591914 12.2536542,11.5565962 12.1775445,11.7514086 L11.6758241,13.0265379 C11.5796856,13.2715292 11.4715314,13.394023 11.3513582,13.394023 C11.2772514,13.394023 11.2091543,13.3563894 11.1470649,13.281121 C11.0849754,13.2058525 11.0178797,13.0781933 10.9457758,12.8981394 L10.0444817,10.6888008 C9.89426522,10.3316448 9.77709815,10.0984637 9.69297694,9.98925073 C9.65291923,9.94202348 9.57981499,9.89627277 9.47366203,9.85199722 C9.42959854,9.8313353 9.39304642,9.79075 9.36400457,9.73024009 C9.33496273,9.66973018 9.32044202,9.60257994 9.32044202,9.52878737 C9.32044202,9.30150624 9.43961195,9.14211667 9.67795537,9.05061388 C9.91830169,8.9620628 10.1806758,8.91778792 10.4650856,8.91778792 C11.1040062,8.91778792 11.4234617,9.09341161 11.4234617,9.44466426 C11.4234617,9.50960172 11.3924175,9.60848229 11.330328,9.74130892 C11.3183107,9.76787424 11.3123021,9.795915 11.3123021,9.82543203 C11.3123021,9.8903695 11.3593692,10.0512349 11.4535049,10.308033 C11.557655,10.6002516 11.6477835,10.7463587 11.7238931,10.7463587 C11.7679566,10.7463587 11.8240366,10.6725673 11.8921347,10.5249821 C11.9602328,10.377397 11.9942814,10.2578548 11.9942814,10.166352 C11.9942814,10.0748492 11.97926,10.0017957 11.9492167,9.94718917 C11.9191734,9.89258266 11.848072,9.80624665 11.7359104,9.68817853 C11.6678123,9.61733766 11.6337637,9.53321539 11.6337637,9.43580919 C11.6337637,9.20557636 11.7939922,9.05504177 12.1144539,8.9842009 C12.3087339,8.93992536 12.5370594,8.91778792 12.7994375,8.91778792 C13.1018733,8.91778792 13.3201846,8.95542156 13.4543779,9.03068999 C13.5885713,9.10595841 13.655667,9.22771433 13.655667,9.3959614 C13.655667,9.46385057 13.6476555,9.51845625 13.6316324,9.5597801 C13.6156094,9.60110394 13.572548,9.6748954 13.502447,9.78115671 C13.4804152,9.81657714 13.4693995,9.86232785 13.4693995,9.91841021 C13.4693995,9.99810619 13.5154652,10.1663507 13.6075979,10.4231489 C13.6877134,10.6474783 13.7608176,10.7596413 13.8269129,10.7596413 C13.8990167,10.7596413 13.9901467,10.6164859 14.1003054,10.3301707 C14.1804209,10.1146964 14.220478,9.97154095 14.220478,9.90070008 C14.220478,9.84461772 14.1884323,9.75754379 14.1243399,9.63947568 C14.0782736,9.55682799 14.0552407,9.4668024 14.0552407,9.36939621 C14.0552407,9.21590765 14.1023078,9.10964794 14.1964435,9.05061388 C14.3286339,8.9650145 14.5209081,8.92221545 14.7732717,8.92221545 C14.943517,8.92221545 15.0947327,8.94140123 15.2269231,8.97977337 C15.3030328,9.00338699 15.3651213,9.05135144 15.4131906,9.12366817 C15.4612598,9.19598489 15.4852941,9.27936925 15.4852941,9.37382374 C15.4852941,9.46827823 15.4572541,9.54797302 15.4011733,9.61291048 C15.3911589,9.627669 15.3210589,9.66899222 15.1908714,9.73688139 C15.1167646,9.77820523 15.0556775,9.8372384 15.0076082,9.91398268 C14.9595389,9.99072695 14.9014561,10.1279791 14.833358,10.3257432 L14.0822795,12.4686688 C13.8619621,13.0944298 13.6676851,13.4073056 13.4994426,13.4073056 C13.4273387,13.4073056 13.3477252,13.3401554 13.2605997,13.2058529 C13.1734741,13.0715504 13.0638178,12.8479623 12.9316273,12.5350818 Z" id="Brew"></path>
                <path d="M5.13179961,14.4529412 C5.35004206,14.4529412 5.56080729,14.5459974 5.76410163,14.7321127 C5.85976956,14.8193542 5.92628766,14.8629743 5.96365794,14.8629743 C5.99056455,14.8629743 6.03391343,14.8498883 6.09370588,14.8237158 C6.11313842,14.8149917 6.13481286,14.8106297 6.15872984,14.8106297 C6.23646003,14.8106297 6.30447293,14.8804218 6.36277057,15.0200083 C6.50627245,15.3573422 6.57802232,15.7760953 6.57802232,16.27628 C6.57802232,16.6281542 6.51598858,16.8855129 6.39191924,17.0483637 C6.32465273,17.1356052 6.2491659,17.1792254 6.16545646,17.1792254 C6.08922109,17.1792254 6.02718735,17.1472373 5.97935338,17.0832601 C5.93151942,17.019283 5.88518097,16.9058707 5.84033663,16.7430199 C5.77605974,16.5132839 5.72374213,16.3482544 5.68338222,16.2479267 C5.64302232,16.1475989 5.59369429,16.0567237 5.53539665,15.9752983 C5.39039995,15.7775508 5.23867888,15.6786785 5.08022888,15.6786785 C4.92626331,15.6786785 4.80406432,15.7870018 4.71362824,16.0036516 C4.62319215,16.2203014 4.57797479,16.5103752 4.57797479,16.8738815 C4.57797479,17.3740663 4.6429981,17.8320775 4.77304669,18.2479287 C4.94943442,18.8033665 5.20205375,19.0810812 5.53091223,19.0810812 C5.65199195,19.0810812 5.77194876,19.0418231 5.89078626,18.9633057 C6.00962376,18.8847883 6.10192697,18.7830081 6.16769867,18.6579619 C6.2245015,18.5532721 6.27083995,18.5009279 6.30671542,18.5009279 C6.35903382,18.5009279 6.40387749,18.548183 6.44124777,18.6426947 C6.47861805,18.7372064 6.49730291,18.8513456 6.49730291,18.985116 C6.49730291,19.1537829 6.47114411,19.3428034 6.41882571,19.5521831 C6.36650732,19.7615628 6.30372618,19.9258652 6.23048043,20.0450953 C6.19908939,20.0945321 6.13406607,20.1381523 6.03540853,20.1759569 C5.9786057,20.1963133 5.90311886,20.2501114 5.80894575,20.3373529 C5.58771367,20.5438246 5.35751618,20.6470588 5.11834637,20.6470588 C4.86871289,20.6470588 4.61983054,20.5380085 4.37169186,20.3199047 C4.08319328,20.0669043 3.85523797,19.6786853 3.6878191,19.1552361 C3.52338986,18.6463272 3.44117647,18.1141618 3.44117647,17.5587241 C3.44117647,16.9131368 3.5443169,16.3242653 3.75060086,15.792092 C3.92997822,15.3297119 4.16391268,14.976389 4.45241127,14.7321127 C4.67214853,14.5459974 4.89860904,14.4529412 5.13179961,14.4529412 Z M8.82553281,16.1803148 C9.19926045,16.1803148 9.52703306,16.3184452 9.80886046,16.59471 C10.011041,16.7924575 10.1733956,17.0498161 10.2959293,17.3667937 C10.4225474,17.6983115 10.4858555,18.0443644 10.4858555,18.4049627 C10.4858555,19.0360098 10.2826569,19.5725371 9.87625364,20.0145609 C9.4882304,20.4362283 9.04405257,20.6470588 8.54370681,20.6470588 C8.05561443,20.6470588 7.66044932,20.4493143 7.35819964,20.0538194 C7.06411887,19.6699567 6.91708069,19.1697794 6.91708069,18.5532726 C6.91708069,17.8669725 7.09679402,17.3057271 7.45622608,16.8695195 C7.83199595,16.4100474 8.28842696,16.1803148 8.82553281,16.1803148 Z M8.58046673,17.1879495 C8.49060871,17.1879495 8.41862127,17.2352046 8.36450224,17.3297162 C8.31038321,17.4242279 8.2833241,17.5499992 8.2833241,17.707034 C8.2833241,17.881517 8.30629882,18.1192466 8.35224894,18.4202299 C8.39819906,18.7212132 8.45282783,18.9880229 8.51613688,19.2206669 C8.57944593,19.4591271 8.68257688,19.5783554 8.82553281,19.5783554 C9.00729106,19.5783554 9.09816883,19.414053 9.09816883,19.0854432 C9.09816883,18.841167 9.07519411,18.5634523 9.02924399,18.2522908 C8.98329387,17.9411293 8.927644,17.6881327 8.86229272,17.4932933 C8.79489921,17.2955458 8.70095815,17.1937656 8.58046673,17.1879495 Z M11.3211727,18.588169 C11.5151843,18.588169 11.6836656,18.6841333 11.8266215,18.8760646 C11.9716197,19.070904 12.0441176,19.3224467 12.0441176,19.6307001 C12.0441176,19.9185971 11.9716197,20.1614157 11.8266215,20.3591632 C11.6836656,20.5510946 11.5151843,20.6470588 11.3211727,20.6470588 C11.1271611,20.6470588 10.9586798,20.5510946 10.8157239,20.3591632 C10.6707258,20.1614157 10.5982278,19.9142351 10.5982278,19.6176139 C10.5982278,19.3151766 10.6707258,19.067996 10.8157239,18.8760646 C10.9586798,18.6870413 11.1271611,18.5910771 11.3211727,18.588169 Z" id="Co."></path>
                <path d="M0.865318077,6.07014674 L0.656394433,6.07457428 C0.509835323,6.08047768 0.402776019,6.08933266 0.335213309,6.10113947 C0.274926583,6.11589798 0.231791038,6.12327713 0.205805381,6.12327713 C0.142400376,6.12327713 0.0919889557,6.07752642 0.0545696085,5.98602363 C0.0181896876,5.89452084 0,5.78530947 0,5.65838624 C0,5.57573856 0.00675616968,5.51080207 0.0202687117,5.46357482 C0.0337812538,5.41634758 0.0665226914,5.34255611 0.118494007,5.24219821 C0.14863737,5.18316415 0.169425584,5.09092482 0.180859274,4.96547744 C0.192292963,4.84003007 0.204765892,4.57069121 0.218278434,4.1574528 C0.238027534,3.51398156 0.247901936,2.72146121 0.247901936,1.77986797 C0.247901936,1.43451873 0.239846503,1.20502727 0.223735395,1.0913867 C0.207624287,0.977746142 0.169945648,0.884030979 0.110698349,0.810238406 C0.0420962121,0.727590723 0.00779565835,0.606572718 0.00779565835,0.447180759 C0.00779565835,0.31730583 0.0283240201,0.211046118 0.0693813593,0.128398436 C0.110438699,0.0457507536 0.163188793,0.00442753227 0.227633224,0.00442753227 C0.262973718,0.00442753227 0.308188085,0.00885502027 0.363277679,0.0177101291 C0.454747195,0.0295169408 0.553491213,0.0354202582 0.659512697,0.0354202582 C0.73746967,0.0354202582 0.890782751,0.0265652822 1.11945654,0.00885506454 C1.19117695,0.00295165866 1.25614012,0 1.314348,0 C1.4525917,0 1.5640685,0.0317303306 1.64878174,0.0951919438 C1.73349499,0.158653557 1.80703329,0.265651184 1.86939887,0.416188033 C1.97126265,0.661179377 2.02219378,0.988813489 2.02219378,1.3991002 C2.02219378,1.6027677 2.00712232,1.80126675 1.97697896,1.99460329 C1.9468356,2.18793983 1.90629858,2.342164 1.85536669,2.45728041 C1.81898677,2.53992809 1.80079708,2.61519539 1.80079708,2.68308456 C1.80079708,2.75687713 1.8226247,2.81886196 1.86628061,2.86904091 C1.95151357,2.96644711 2.02894967,3.13026416 2.09859123,3.36049699 C2.17031164,3.59958493 2.20617131,3.89917829 2.20617131,4.25928604 C2.20617131,4.68433127 2.15160225,5.07247438 2.04246249,5.42372703 C1.89798223,5.88714439 1.68438333,6.1188496 1.40165937,6.1188496 C1.3632006,6.1188496 1.26861422,6.11147045 1.11789741,6.09671194 C0.980693135,6.08195342 0.896500866,6.07309845 0.865318077,6.07014674 Z M0.882468561,1.53192617 L0.882468561,2.44399781 C0.882468561,2.58863126 0.894437686,2.69046348 0.918376297,2.74949754 C0.942314907,2.8085316 0.983967465,2.83804819 1.04333522,2.83804819 C1.18505179,2.83804819 1.28942257,2.77089795 1.35645068,2.63659547 C1.42347879,2.50229298 1.45699234,2.2919873 1.45699234,2.00567212 C1.45699234,1.72821204 1.42252126,1.51347887 1.35357806,1.36146617 C1.28463486,1.20945347 1.1869668,1.13344826 1.06057093,1.13344826 C0.993542823,1.13344826 0.947102615,1.16222693 0.921248916,1.21978514 C0.895395216,1.27734335 0.882468561,1.38138932 0.882468561,1.53192617 Z M0.882468561,3.78996762 L0.882468561,4.21058319 C0.882468561,4.59725627 0.900661632,4.85405058 0.93704832,4.9809738 C0.973435008,5.10789703 1.04716482,5.17135769 1.15823997,5.17135769 C1.44933348,5.17135769 1.59487805,4.90866007 1.59487805,4.38325695 C1.59487805,3.7279789 1.43209794,3.40034478 1.10653283,3.40034478 C1.02226893,3.40034478 0.963859592,3.42838554 0.931303082,3.4844679 C0.898746572,3.54055025 0.882468561,3.64238248 0.882468561,3.78996762 Z M3.46300152,1.6603246 C3.68106246,1.6603246 3.87230976,1.80052839 4.03674915,2.08094017 C4.15471654,2.28165597 4.24944651,2.54287776 4.3209419,2.86461338 C4.39482047,3.20110751 4.4317592,3.5523549 4.4317592,3.91836606 C4.4317592,4.5588856 4.31319779,5.10346662 4.07607142,5.55212547 C3.84966935,5.98012239 3.59050246,6.19411765 3.29856295,6.19411765 C3.01377299,6.19411765 2.78320382,5.99340486 2.60684853,5.59197326 C2.43525959,5.20234847 2.34946641,4.69466318 2.34946641,4.06890216 C2.34946641,3.37230026 2.45432474,2.80263014 2.66404455,2.3598747 C2.88329708,1.89350564 3.1496134,1.6603246 3.46300152,1.6603246 Z M3.253854,2.68308456 C3.17275791,2.68308456 3.10778986,2.73104901 3.05894789,2.82697936 C3.01010593,2.9229097 2.98568531,3.05056894 2.98568531,3.2099609 C2.98568531,3.38706307 3.0064198,3.62836117 3.04788939,3.93386242 C3.08935898,4.23936368 3.13866098,4.51017836 3.19579686,4.74631459 C3.25293275,4.98835424 3.34600755,5.10937224 3.47502406,5.10937224 C3.63905934,5.10937224 3.72107575,4.94260353 3.72107575,4.60906109 C3.72107575,4.36111805 3.70034126,4.07923464 3.65887167,3.76340243 C3.61740208,3.44757022 3.56717855,3.19077591 3.50819957,2.99301182 C3.4473775,2.79229602 3.36259649,2.68898796 3.253854,2.68308456 Z M5.52452237,1.66475213 C5.60555566,1.66475213 5.73763794,1.69722038 5.92077316,1.76215784 C5.95804848,1.77396466 5.98884066,1.77986797 6.01315065,1.77986797 C6.04070197,1.77986797 6.09418313,1.75330304 6.17359575,1.70017239 C6.21087107,1.67360707 6.24247357,1.6603246 6.26840423,1.6603246 C6.34295485,1.6603246 6.41831468,1.74739853 6.49448597,1.92154901 C6.55607126,2.06027904 6.60631115,2.21228946 6.64520713,2.37758483 C6.6841031,2.54288019 6.7035508,2.68603564 6.7035508,2.80705546 C6.7035508,2.92512358 6.68086182,3.02326623 6.63548318,3.10148636 C6.59010454,3.17970648 6.53338209,3.21881596 6.46531413,3.21881596 C6.40859083,3.21881596 6.35794578,3.19372686 6.31337748,3.14354791 C6.26880917,3.09336896 6.19709578,2.98268176 6.09823517,2.81148299 C5.99451257,2.62847741 5.90861857,2.53697599 5.84055061,2.53697599 C5.79517197,2.53697599 5.75587142,2.56723049 5.72264777,2.6277404 C5.68942412,2.68825031 5.67281255,2.75982804 5.67281255,2.84247572 C5.67281255,2.98710916 5.74898269,3.12288546 5.90132527,3.24980869 C6.17521778,3.47413811 6.38509085,3.71912578 6.53095076,3.98477904 C6.65412136,4.20910847 6.71570573,4.48361272 6.71570573,4.80830005 C6.71570573,5.21858675 6.61684661,5.56097916 6.41912539,5.83548753 C6.24895548,6.07457547 6.04070306,6.19411765 5.79436187,6.19411765 C5.7311559,6.19411765 5.61609036,6.17493187 5.44916179,6.13655973 C5.29195722,6.104091 5.20363226,6.08785687 5.18418427,6.08785687 C5.16311561,6.08785687 5.13880599,6.09228436 5.11125467,6.10113947 C5.06425537,6.11294628 5.0302219,6.1188496 5.00915324,6.1188496 C4.93298195,6.1188496 4.87301822,6.08342969 4.82926025,6.01258882 C4.76281295,5.90337582 4.70122858,5.7314417 4.64450528,5.49678131 C4.58778198,5.26212093 4.55942075,5.06067023 4.55942075,4.89242316 C4.55942075,4.62086649 4.61776384,4.48509019 4.73445177,4.48509019 C4.77983042,4.48509019 4.82156193,4.51239303 4.85964758,4.56699954 C4.89773322,4.62160604 4.97754981,4.76697523 5.09909974,5.00311147 C5.16554704,5.1329864 5.22064885,5.22227407 5.26440682,5.27097717 C5.3081648,5.31968027 5.3551634,5.34403145 5.40540404,5.34403145 C5.458886,5.34403145 5.501833,5.31820444 5.53424632,5.26654964 C5.56665963,5.21489483 5.58286605,5.14626877 5.58286605,5.06066939 C5.58286605,4.92784275 5.52047135,4.80682475 5.39568009,4.69761174 C5.13475291,4.46442721 4.94635334,4.22386703 4.83047574,3.97592398 C4.71459814,3.72798093 4.65666021,3.44167004 4.65666021,3.11698272 C4.65666021,2.76573007 4.71581362,2.46318506 4.83412222,2.2093386 C5.00267146,1.84627914 5.23280254,1.66475213 5.52452237,1.66475213 Z M8.56112028,2.82476559 L8.56112028,4.3212715 C8.56112028,4.49837367 8.58936742,4.64300495 8.64586254,4.75516966 C8.70235766,4.86733437 8.77465118,4.92341589 8.86274526,4.92341589 C8.93743373,4.92341589 9.03605932,4.87028603 9.15862501,4.76402472 C9.18735134,4.7374594 9.21607724,4.72417693 9.24480358,4.72417693 C9.29076571,4.72417693 9.33289703,4.76697598 9.37119881,4.85257537 C9.40950059,4.93817475 9.42865119,5.031152 9.42865119,5.1315099 C9.42865119,5.31451548 9.36353914,5.49013917 9.2333131,5.65838624 C8.96137049,6.0155423 8.63198015,6.19411765 8.2451322,6.19411765 C7.93871799,6.19411765 7.69263276,6.06055509 7.50686914,5.79342598 C7.32110553,5.52629686 7.22822511,5.17431156 7.22822511,4.73745953 L7.22822511,2.69193962 C7.22822511,2.62405045 7.2229587,2.58198932 7.21242571,2.56575495 C7.20189272,2.54952058 7.17460311,2.54140352 7.13055607,2.54140352 L6.83467632,2.54140352 C6.77913875,2.54140352 6.74371013,2.52738314 6.72838942,2.49934197 C6.71306871,2.47130079 6.70540847,2.40562638 6.70540847,2.30231678 L6.70540847,2.10750536 C6.70732356,2.01895427 6.72934675,1.95401778 6.77147871,1.91269394 L8.08713816,0.637564647 C8.11969467,0.610999321 8.15991093,0.597716857 8.20778815,0.597716857 L8.44047029,0.597716857 C8.48834751,0.597716857 8.52042476,0.614688894 8.53670302,0.648633478 C8.55298127,0.682578061 8.56112028,0.749728296 8.56112028,0.850086196 L8.56112028,1.44780305 C8.56112028,1.53635414 8.57021681,1.59391148 8.58841016,1.62047681 C8.6066035,1.64704214 8.64538347,1.6603246 8.70475122,1.6603246 L9.23618572,1.6603246 C9.30704401,1.6603246 9.35300545,1.6802483 9.37407143,1.72009629 C9.3951374,1.75994428 9.40567024,1.84480446 9.40567024,1.97467939 L9.40567024,2.2359038 C9.40567024,2.37758554 9.39226481,2.47572819 9.36545357,2.53033469 C9.33864233,2.5849412 9.28980829,2.61224404 9.21895001,2.61224404 L8.69900599,2.61224404 C8.6453835,2.61224404 8.60899736,2.62700233 8.58984647,2.65651936 C8.57069558,2.68603639 8.56112028,2.74211791 8.56112028,2.82476559 Z M11.4967954,1.6603246 C11.8472566,1.6603246 12.1546238,1.80052839 12.4189061,2.08094017 C12.6084999,2.28165597 12.7607471,2.54287776 12.8756525,2.86461338 C12.994388,3.20110751 13.0537548,3.5523549 13.0537548,3.91836606 C13.0537548,4.5588856 12.8632064,5.10346662 12.4821037,5.55212547 C12.1182368,5.98012239 11.7017112,6.19411765 11.2325145,6.19411765 C10.7748082,6.19411765 10.4042441,5.99340486 10.1208109,5.59197326 C9.84503814,5.20234847 9.70715382,4.69466318 9.70715382,4.06890216 C9.70715382,3.37230026 9.87567911,2.80263014 10.2127347,2.3598747 C10.5651111,1.89350564 10.993127,1.6603246 11.4967954,1.6603246 Z M11.3095001,2.68308456 C11.2252362,2.68308456 11.1577303,2.73104901 11.1069804,2.82697936 C11.0562306,2.9229097 11.030856,3.05056894 11.030856,3.2099609 C11.030856,3.38706307 11.0524005,3.62836117 11.09549,3.93386242 C11.1385795,4.23936368 11.1898073,4.51017836 11.2491751,4.74631459 C11.3085428,4.98835424 11.4052534,5.10937224 11.5393096,5.10937224 C11.7097525,5.10937224 11.7949727,4.94260353 11.7949727,4.60906109 C11.7949727,4.36111805 11.7734282,4.07923464 11.7303387,3.76340243 C11.6872492,3.44757022 11.6350639,3.19077591 11.573781,2.99301182 C11.5105831,2.79229602 11.4224903,2.68898796 11.3095001,2.68308456 Z M16.9100026,3.29851154 L16.9502193,4.8570029 C16.9540494,4.97507102 16.9660186,5.06214495 16.986127,5.11822731 C17.0062354,5.17430966 17.0651235,5.2820452 17.1627931,5.44143716 C17.1915194,5.48866441 17.2058824,5.55507673 17.2058824,5.64067611 C17.2058824,5.83548851 17.1302375,5.97126481 16.9789455,6.04800908 C16.8276534,6.12475336 16.55763,6.16312492 16.1688669,6.16312492 C15.9045847,6.16312492 15.7178663,6.12770502 15.6087062,6.05686415 C15.495716,5.98307157 15.4392217,5.8635294 15.4392217,5.69823403 C15.4392217,5.63919997 15.4449669,5.59566301 15.4564574,5.56762183 C15.467948,5.53958065 15.5062492,5.47095459 15.5713622,5.36174158 C15.6479658,5.23777006 15.686267,4.82453784 15.686267,4.12203254 C15.686267,3.71469754 15.655626,3.41362835 15.5943432,3.21881596 C15.5445508,3.06237571 15.452628,2.98415675 15.3185717,2.98415675 C15.1902608,2.98415675 15.102168,3.04761741 15.0542908,3.17454064 C15.0064136,3.30146386 14.9824753,3.53169324 14.9824753,3.86523567 L14.9824753,4.74188706 C14.9824753,4.91603754 14.9896568,5.03557971 15.00402,5.10051718 C15.0183831,5.16545464 15.0657809,5.29090013 15.1462146,5.47685742 C15.1672806,5.52998807 15.1778134,5.59049707 15.1778134,5.65838624 C15.1778134,5.83253672 15.0992959,5.96093387 14.9422587,6.04358155 C14.7852214,6.12622923 14.5400937,6.16755245 14.2068682,6.16755245 C13.6744735,6.16755245 13.4082802,5.99783208 13.4082802,5.65838624 C13.4082802,5.58754537 13.4164192,5.5336776 13.4326974,5.49678131 C13.4489757,5.45988503 13.4877557,5.40749309 13.5490385,5.33960392 C13.5988308,5.28352156 13.6304293,5.21932299 13.6438349,5.14700626 C13.6572405,5.07468954 13.6696884,4.89685211 13.681179,4.61348863 C13.6945846,4.27699449 13.7012873,3.92427128 13.7012873,3.55530841 C13.7012873,3.35164091 13.6912332,3.21807836 13.6711248,3.15461674 C13.6510164,3.09115513 13.5930858,3.01367409 13.4973314,2.9221713 C13.4149825,2.84247532 13.3738087,2.74507058 13.3738087,2.62995417 C13.3738087,2.51188605 13.4073223,2.41521923 13.4743504,2.33995081 C13.5413785,2.26468238 13.6792628,2.16949139 13.8880075,2.05437497 C14.0718561,1.95401707 14.2489991,1.86915689 14.419442,1.79979187 C14.5898849,1.73042685 14.7067036,1.69574486 14.7699015,1.69574486 C14.8273542,1.69574486 14.8757095,1.72821311 14.9149688,1.79315057 C14.9542281,1.85808803 14.9738575,1.93483116 14.9738575,2.02338225 C14.9738575,2.03223736 14.9728999,2.06913309 14.9709849,2.13407055 C14.9690698,2.15768418 14.9681122,2.17834579 14.9681122,2.19605601 C14.9681122,2.33773775 15.0064134,2.40857756 15.083017,2.40857756 C15.1289791,2.40857756 15.1778132,2.35249604 15.2295206,2.24033133 C15.3942182,1.87432016 15.6336007,1.69131733 15.9476753,1.69131733 C16.1889765,1.69131733 16.395803,1.78872206 16.568161,1.98353446 C16.6888116,2.1222645 16.7730742,2.28534364 16.8209514,2.47277677 C16.8688286,2.66020991 16.8985121,2.93545208 16.9100026,3.29851154 Z" id="Boston"></path>
            </g>
            <path d="M44.0683925,147.970588 C46.6931739,147.681883 49.209592,147.237647 51.6176471,146.637878 C51.5881589,145.467026 51.3777241,125.264693 50.9863426,86.0308774 L43.5882353,86.2857313 L44.0683925,147.970588 Z" id="Path-86" fill="#D7CAB7"></path>
            <path d="M8.32293397,86.0294118 C16.245908,86.2944306 20.7363023,86.4082787 21.7941167,86.3709562 C21.7977805,86.7704412 11.5995193,92.1795505 10.4598305,98.9223891 C10.4610116,105.289272 10.4691622,121.349751 10.4842823,147.103827 C9.71926131,148.215594 8.93806962,148.193636 8.14070724,147.037954 C8.10280636,145.528363 8.1635486,125.192182 8.32293397,86.0294118 Z" id="Path-64" fill="#A78F76" opacity="0.360100446"></path>
            <path d="M34.4712049,90.4962889 C36.4374075,87.8708736 37.7204728,87.4102028 40.7575882,90.3060314 C40.7193194,104.515355 41.3287628,130.782341 41.2925659,144.774541 C36.1019755,148.932967 31.9274751,145.554625 29.8235294,145.072617 C37.4993584,130.665048 33.2380173,99.3394339 34.4712049,90.4962889 Z" id="Path-65" fill="#998971" opacity="0.188002232"></path>
            <path d="M62.5326813,105.027714 L61.4978435,105.052851 C60.7636814,105.081198 60.2140268,105.1193 59.8488632,105.167158 C59.5106046,105.226049 59.2779327,105.256023 59.1508404,105.257063 C58.8407353,105.2596 58.7287324,105.086377 58.8148283,104.737421 C58.9060079,104.388469 59.1382342,103.971146 59.511514,103.485599 C59.75458,103.169567 59.978601,102.921121 60.1835838,102.74021 C60.3885666,102.559352 60.7657203,102.276525 61.3150563,101.891905 C61.6361018,101.66581 62.009049,101.313439 62.433909,100.834923 C62.8587689,100.356695 63.711895,99.331137 64.9933127,97.7601516 C66.9823448,95.3196177 69.361433,92.323226 72.1306486,88.7762774 C73.1463171,87.4788972 73.781851,86.6176103 74.0372695,86.1910844 C74.292688,85.7647156 74.3840223,85.4125073 74.3112751,85.1343093 C74.2188175,84.8226224 74.406971,84.3683408 74.875741,83.771785 C75.2577018,83.2860016 75.6706118,82.8895337 76.1144835,82.5823168 C76.5583552,82.2752985 76.9378797,82.1231872 77.2530685,82.1258293 C77.425914,82.1272782 77.6340299,82.1456483 77.8774227,82.1809315 C78.2900637,82.2286903 78.7556454,82.254711 79.2741817,82.2590141 C79.6554585,82.2621782 80.4313338,82.2354327 81.6018311,82.178861 C81.9699676,82.159844 82.2963742,82.1515349 82.5810608,82.1539247 C83.2571916,82.1596004 83.7090906,82.2820223 83.9367713,82.5211353 C84.1644521,82.76017 84.2094389,83.1604094 84.071733,83.7220083 C83.8494177,84.6362348 83.1349464,85.8569324 81.9282975,87.3859268 C81.3293136,88.1459194 80.6718176,88.887002 79.9557899,89.6092635 C79.2397622,90.3322745 78.5879297,90.9093906 78.0002727,91.3403416 C77.5792777,91.6499697 77.2689541,91.9322081 77.0692928,92.1869791 C76.8522696,92.4639875 76.7767288,92.6968195 76.842668,92.8854038 C76.97306,93.2514289 76.870005,93.8668778 76.5334999,94.732135 C76.1811194,95.6311194 75.4754032,96.7588222 74.4163302,98.1164837 C73.1662767,99.7216264 71.7578623,101.191349 70.1910446,102.525773 C68.1215062,104.290892 66.3953811,105.181033 65.0126175,105.192329 C64.824521,105.193866 64.3836142,105.169494 63.6898838,105.119171 C63.0622414,105.068259 62.6765111,105.037762 62.5326813,105.027714 Z M77.1869782,86.8651489 L74.5045852,90.2844631 C74.0792198,90.8279039 73.8115049,91.2107828 73.7014325,91.4328879 C73.5913601,91.6550282 73.6151207,91.7662226 73.7727151,91.7664481 C74.1489081,91.7669865 74.6234532,91.5149632 75.1963645,91.0106831 C75.7692758,90.5068197 76.4767458,89.7180997 77.3187957,88.6451661 C78.1348028,87.6066613 78.6748257,86.8033193 78.9388806,86.2343597 C79.2029355,85.6656174 79.1672017,85.3803179 78.8316782,85.3782895 C78.6537491,85.3772139 78.4458337,85.4839602 78.2079258,85.6985872 C77.9700179,85.9132884 77.6297054,86.3020668 77.1869782,86.8651489 Z M69.686695,96.4592103 L68.4496691,98.0515126 C67.3124677,99.5178057 66.6055327,100.492672 66.328843,100.974497 C66.0521532,101.456512 66.0612352,101.696751 66.3560892,101.695077 C67.1288101,101.690691 68.2877556,100.691013 69.8329606,98.69931 C71.7601263,96.2214354 72.2915876,94.9854617 71.4273603,94.9862241 C71.203678,94.9864215 70.9661602,95.0924327 70.7147998,95.3043182 C70.4634395,95.51628 70.1207413,95.9011726 69.686695,96.4592103 Z M89.032602,88.3915176 C89.9629172,88.3951458 90.3664993,88.918365 90.2433605,89.9613313 C90.1563428,90.7079928 89.7922395,91.6794988 89.1510399,92.8766453 C88.476603,94.1299027 87.6011802,95.4396279 86.5247453,96.8065387 C84.6409842,99.2037652 82.5335577,101.249809 80.2024026,102.94408 C77.9777672,104.565609 76.2427235,105.383509 74.9972195,105.393938 C73.7822177,105.404111 73.3888327,104.651404 73.8170526,103.136492 C74.2308836,101.667036 75.3579605,99.7510937 77.1983169,97.392628 C79.2470156,94.7744998 81.3697673,92.6395399 83.5666357,90.9858388 C85.8736211,89.2496121 87.6955916,88.3863033 89.032602,88.3915176 Z M85.4146362,92.1964207 C85.1909539,92.1961676 84.8706935,92.3749765 84.4538457,92.733015 C84.0369978,93.09127 83.5941954,93.5683686 83.1254254,94.1644661 C82.6045698,94.8272712 81.9521053,95.7310517 81.1680124,96.8764328 C80.3839195,98.0231108 79.7234431,99.0405475 79.1865633,99.9283157 C78.6323217,100.83901 78.5331316,101.293656 78.8889898,101.291721 C79.3414382,101.289262 80.058124,100.660228 81.0390687,99.4059309 C81.7682666,98.4746808 82.540092,97.4172944 83.3545681,96.2340504 C84.1690443,95.0521991 84.7857451,94.0923066 85.2046891,93.353636 C85.6272304,92.6043969 85.6972121,92.2187793 85.4146362,92.1964207 Z M98.5087486,88.4448499 C98.7629331,88.4458381 99.0817588,88.5671138 99.4652353,88.8085794 C99.5474365,88.8525125 99.6266636,88.8746132 99.7029189,88.8748859 C99.7893416,88.875195 100.035228,88.7779316 100.440586,88.5831803 C100.635639,88.4858189 100.773833,88.437308 100.855172,88.4376253 C101.089022,88.4385373 101.069326,88.7599069 100.796085,89.401937 C100.581261,89.913577 100.291792,90.4742506 99.9276691,91.084098 C99.5635458,91.6942712 99.2035305,92.22293 98.8476125,92.6700208 C98.5003754,93.1064316 98.1405684,93.4693467 97.7681805,93.7587286 C97.3957926,94.0482682 97.1028456,94.193129 96.8893306,94.1931971 C96.7114015,94.1932538 96.6263253,94.100359 96.6340996,93.9145115 C96.6418739,93.7286661 96.7424539,93.3187534 96.9358426,92.6848939 C97.1487039,92.007526 97.148377,91.6687633 96.9348621,91.6684373 C96.7925188,91.6682199 96.580263,91.7799525 96.2980883,92.0037077 C96.0159137,92.2275553 95.7532973,92.4925317 95.5102314,92.7986572 C95.084866,93.3346386 94.9244792,93.8380861 95.0290662,94.3087113 C95.2284593,95.1403235 95.1662811,96.0487097 94.8425298,97.034428 C94.5691398,97.8671749 93.955003,98.8876771 93.0001011,100.096975 C91.7934523,101.627489 90.4763794,102.908849 89.0488431,103.940677 C87.8119006,104.841042 86.807084,105.295053 86.0343632,105.301523 C85.8360993,105.303183 85.5315879,105.234099 85.1208199,105.094204 C84.7231922,104.976171 84.4938797,104.917376 84.4328754,104.91787 C84.3667874,104.918404 84.277512,104.935672 84.1650465,104.969678 C83.9828958,105.01529 83.8587783,105.03837 83.7926904,105.03891 C83.553757,105.040861 83.4698328,104.909102 83.5409154,104.643647 C83.6536785,104.234433 83.9661575,103.589382 84.4783621,102.708912 C84.9905666,101.829092 85.4940677,101.073968 85.9888806,100.443365 C86.7875258,99.4265019 87.3698525,98.9178324 87.7358782,98.916461 C87.8782215,98.9159277 87.9288272,99.0175018 87.8876968,99.2211955 C87.8465663,99.4249014 87.6694051,99.9675558 87.3562076,100.849466 C87.1826781,101.334695 87.0929269,101.668185 87.0869512,101.849858 C87.0809756,102.031532 87.1567838,102.12189 87.3143782,102.120933 C87.4821399,102.119914 87.6928127,102.022355 87.9464027,101.828307 C88.1999927,101.634329 88.4526573,101.377196 88.7044042,101.056935 C89.0950459,100.560207 89.2552395,100.108789 89.1849896,99.7024237 C89.0523088,98.8345761 89.1688237,97.9383326 89.5345377,97.0141602 C89.9002517,96.0904788 90.5605498,95.0242539 91.5154517,93.8163444 C92.548482,92.5114961 93.6238156,91.3894842 94.7414846,90.4499536 C96.3379423,89.1088688 97.5936844,88.4412921 98.5087486,88.4448499 Z M105.82166,92.7407222 L101.420452,98.2605836 C100.899596,98.9161847 100.549221,99.4516416 100.369314,99.8666779 C100.189408,100.281823 100.216379,100.488857 100.450229,100.487704 C100.648493,100.486726 101.066553,100.288526 101.704423,99.8933741 C101.858806,99.794666 101.974124,99.7451535 102.050379,99.7448185 C102.172388,99.7442824 102.158356,99.9022169 102.008283,100.218679 C101.85821,100.535211 101.635601,100.879415 101.340449,101.251369 C100.802232,101.930053 100.112882,102.582979 99.2723779,103.210342 C97.5001018,104.544557 96.1005321,105.217239 95.0736268,105.225837 C94.2602364,105.232648 93.9997982,104.739206 94.2923041,103.745815 C94.5848101,102.752847 95.3734398,101.442836 96.658217,99.8177044 L102.674069,92.2485985 C102.87373,91.9985282 102.983452,91.8436128 103.003237,91.783794 C103.023021,91.723977 102.974452,91.693981 102.857527,91.6938039 L102.072101,91.692614 C101.924674,91.6923907 101.871861,91.6405828 101.91366,91.5371936 C101.95546,91.4338108 102.128273,91.1918467 102.432105,90.811417 L103.005044,90.0945011 C103.270555,89.7688432 103.519994,89.5302819 103.753368,89.3787536 L110.995987,84.7289861 C111.160538,84.6327392 111.306358,84.585056 111.43345,84.5859172 L112.051115,84.5901028 C112.178208,84.5909641 112.213444,84.6533457 112.156824,84.7772573 C112.100205,84.9011793 111.924322,85.1459498 111.629171,85.5116885 L109.871292,87.6932966 C109.610864,88.0169832 109.465736,88.2275418 109.435902,88.3248883 C109.406069,88.4222391 109.469949,88.4712226 109.627543,88.4718373 L111.03826,88.477339 C111.226356,88.4780726 111.289768,88.55132 111.228496,88.6970933 C111.167224,88.8428798 110.945611,89.1530805 110.56365,89.6278964 L109.795392,90.5837324 C109.378707,91.102609 109.054486,91.4621608 108.822717,91.6622105 C108.590948,91.8623287 108.381019,91.9622875 108.192922,91.9620386 L106.812707,91.9602125 C106.670364,91.9600241 106.530371,92.0141032 106.392725,92.1224677 C106.255079,92.2308543 106.064726,92.4369153 105.82166,92.7407222 Z M118.33891,88.5058113 C119.269225,88.5094395 119.672808,89.0215361 119.549669,90.0422566 C119.462651,90.7729948 119.098548,91.7237775 118.457348,92.8953999 C117.782911,94.1219624 116.907489,95.4038224 115.831054,96.7416966 C113.947293,99.0881091 111.839866,101.09095 109.508711,102.749628 C107.284075,104.337203 105.549032,105.138126 104.303528,105.148555 C103.088526,105.158728 102.695141,104.421944 103.123361,102.938878 C103.537192,101.500333 104.664269,99.6246661 106.504625,97.3158435 C108.553324,94.7529785 110.676076,92.6632118 112.872944,91.0446356 C115.179929,89.3454071 117.0019,88.500597 118.33891,88.5058113 Z M114.720944,92.2295764 C114.497262,92.2293234 114.177002,92.4043271 113.760154,92.7547552 C113.343306,93.1053998 112.900504,93.5723709 112.431734,94.1558235 C111.910878,94.8045787 111.258414,95.6892164 110.474321,96.8103613 C109.690228,97.9328032 109.029751,98.9287555 108.492872,99.7977904 C107.93863,100.689284 107.83944,101.134329 108.195298,101.132394 C108.647746,101.129934 109.364432,100.514131 110.345377,99.2862943 C111.074575,98.3747141 111.8464,97.3396902 112.660876,96.1815019 C113.475353,95.0247064 114.092053,94.085186 114.510997,93.3622045 C114.933539,92.6288886 115.00352,92.2514667 114.720944,92.2295764 Z M129.209717,94.4710281 L124.732967,100.126992 C124.395897,100.557005 124.171586,100.874144 124.060028,101.078282 C123.948469,101.282454 123.787941,101.674451 123.578439,102.254395 C123.515799,102.426269 123.358609,102.668449 123.106862,102.981018 C122.533921,103.692816 121.933801,104.190828 121.306486,104.474811 C120.67917,104.759054 119.84953,104.905549 118.817541,104.914103 C118.115992,104.919918 117.724509,104.794002 117.643081,104.536328 C117.560167,104.26787 117.761772,103.830391 118.247904,103.224229 C118.421523,103.007849 118.564815,102.848203 118.677786,102.745258 C118.790757,102.642331 119.094258,102.390333 119.588298,101.989462 C120.156244,101.534732 121.473228,100.02443 123.539289,97.4641186 C124.737256,95.9831672 125.54136,94.8903341 125.951623,94.1839298 C126.279536,93.6169788 126.265564,93.3335554 125.909706,93.3334428 C125.569098,93.3333351 125.148615,93.56334 124.648243,94.0237224 C124.147871,94.4844487 123.407224,95.320855 122.426279,96.5340371 L119.848056,99.7310965 C119.335882,100.367663 119.003373,100.804801 118.85052,101.042202 C118.697668,101.279657 118.454553,101.738212 118.12117,102.418094 C118.020834,102.612441 117.870837,102.834053 117.671176,103.082971 C117.159001,103.721834 116.572958,104.194776 115.91303,104.50167 C115.253101,104.80886 114.480868,104.966235 113.596306,104.973577 C112.18304,104.985309 111.975564,104.365494 112.97387,103.115489 C113.182212,102.85485 113.362242,102.65657 113.513965,102.520606 C113.665688,102.384672 113.922715,102.191441 114.285055,101.940984 C114.582168,101.734199 114.854855,101.497985 115.103124,101.232341 C115.351392,100.966793 115.907454,100.314452 116.771325,99.2762185 C117.796536,98.0450393 118.851684,96.756529 119.9368,95.4108738 C120.535784,94.6690006 120.901901,94.1828566 121.035162,93.9519663 C121.168424,93.7211218 121.242515,93.4393221 121.257439,93.10653 C121.273226,92.8166868 121.450394,92.4626006 121.78895,92.0444141 C122.136188,91.615724 122.509447,91.2650696 122.90874,90.9923961 C123.308032,90.7198853 123.954008,90.3758329 124.846687,89.9605241 C125.629872,89.5989292 126.349679,89.2936974 127.00613,89.0446853 C127.66258,88.7959198 128.07468,88.6719504 128.242441,88.6725886 C128.394952,88.6731687 128.427824,88.7907506 128.34106,89.0253605 C128.254295,89.2600009 128.080701,89.5371141 127.820274,89.8567791 C127.794231,89.8887525 127.683179,90.0219792 127.487115,90.256514 C127.412584,90.3418082 127.349276,90.4164521 127.297191,90.4804445 C126.880506,90.9925636 126.77384,91.2489297 126.977187,91.2493109 C127.099196,91.2495396 127.393763,91.0470548 127.860898,90.6420633 C129.37453,89.3224497 130.548191,88.6653683 131.381916,88.6685498 C132.022461,88.6709942 132.285025,89.0233495 132.169616,89.7257175 C132.081885,90.2259483 131.82595,90.8137235 131.401803,91.4893342 C130.977657,92.1653753 130.246968,93.1588612 129.209717,94.4710281 Z M132.705366,104.454485 L131.670529,104.478767 C130.936366,104.505974 130.386712,104.542367 130.021548,104.587945 C129.68329,104.643987 129.450618,104.672537 129.323526,104.673577 C129.01342,104.676114 128.901418,104.511724 128.987513,104.180433 C129.078693,103.849147 129.310919,103.452909 129.684199,102.991866 C129.927265,102.69179 130.151286,102.45588 130.356269,102.284088 C130.561252,102.112347 130.938405,101.843767 131.487741,101.478523 C131.808787,101.263824 132.181734,100.929262 132.606594,100.474965 C133.031454,100.020956 133.88458,99.0473975 135.165998,97.5561932 C137.15503,95.2398899 139.534118,92.3965046 142.303334,89.0313429 C143.319002,87.800637 143.954536,86.9836564 144.209955,86.5790702 C144.465373,86.1746412 144.556707,85.8405259 144.48396,85.5765745 C144.391503,85.2808439 144.579656,84.8499263 145.048426,84.2841433 C145.430387,83.8234339 145.843297,83.4474808 146.287169,83.1562202 C146.73104,82.8651581 147.110565,82.7210248 147.425754,82.7236669 C147.598599,82.7251157 147.806715,82.7426311 148.050108,82.7762047 C148.462749,82.821684 148.928331,82.846565 149.446867,82.8508681 C149.828144,82.8540322 150.604019,82.8289963 151.774516,82.7758438 C152.142653,82.7579665 152.469059,82.7502273 152.753746,82.752617 C153.429877,82.7582928 153.881776,82.8745887 154.109456,83.1014496 C154.337137,83.3282322 154.382124,83.7078143 154.244418,84.2403501 C154.022103,85.1072779 153.307631,86.2647214 152.100983,87.7145045 C151.501999,88.4351765 150.844503,89.1379363 150.128475,89.8228716 C149.412447,90.5085564 148.760615,91.0558975 148.172958,91.4646238 C147.751963,91.7582956 147.441639,92.0260027 147.241978,92.2676669 C147.024955,92.5304286 146.949414,92.7512936 147.015353,92.9301902 C147.145745,93.2774098 147.04269,93.8612316 146.706185,94.6820394 C146.353805,95.5348647 145.648088,96.6047271 144.589015,97.8928651 C143.338962,99.4159473 141.930547,100.810734 140.36373,102.077344 C138.294191,103.752994 136.568066,104.598401 135.185303,104.609698 C134.997206,104.611234 134.556299,104.588287 133.862569,104.540813 C133.234926,104.49275 132.849196,104.463963 132.705366,104.454485 Z M147.359663,87.2193705 L144.67727,90.4625972 C144.251905,90.9781147 143.98419,91.3413335 143.874118,91.5520413 C143.764045,91.7627843 143.787806,91.8682802 143.9454,91.8685057 C144.321593,91.869044 144.796138,91.629985 145.36905,91.1516338 C145.941961,90.6736992 146.649431,89.9255815 147.491481,88.9079247 C148.307488,87.9229873 148.847511,87.1611023 149.111566,86.6214908 C149.375621,86.0820965 149.339887,85.8114708 149.004363,85.8094424 C148.826434,85.8083668 148.618519,85.909557 148.380611,86.1130717 C148.142703,86.3166605 147.802391,86.6853514 147.359663,87.2193705 Z M139.85938,96.321071 L138.622354,97.8321679 C137.485153,99.2238088 136.778218,100.149097 136.501528,100.606418 C136.224838,101.063929 136.23392,101.291916 136.528774,101.290242 C137.301495,101.285856 138.460441,100.336895 140.005646,98.4466284 C141.932811,96.0952639 142.464273,94.9225442 141.600045,94.9233066 C141.376363,94.923504 141.138845,95.0241015 140.887485,95.2251596 C140.636125,95.426294 140.293426,95.7915265 139.85938,96.321071 Z M157.955062,88.7743322 C158.224498,88.7753603 158.323338,88.8539614 158.251587,89.0101507 C158.179836,89.1663572 157.815264,89.6659031 157.157863,90.5094287 C156.80132,90.9679981 156.689139,91.1975027 156.821315,91.1977616 C156.922988,91.1979607 157.145449,91.047027 157.488702,90.7450752 C158.980513,89.4454202 160.0543,88.7979672 160.710096,88.8004619 C161.172712,88.8022217 161.295358,89.1096685 161.078037,89.722965 C160.968633,90.0244836 160.762197,90.4116783 160.458721,90.8846883 C160.155245,91.3579189 159.821213,91.8130867 159.456614,92.2502232 C159.048611,92.73969 158.573842,93.2424637 158.032295,93.7586509 C157.490748,94.2752665 156.992123,94.7009143 156.536404,95.0354608 C155.681511,95.6738153 155.017683,95.9937043 154.5449,95.9945123 C154.285632,95.9949555 154.146435,95.9010243 154.127304,95.712712 C154.108174,95.5243941 154.194989,95.1423832 154.387754,94.5667991 C154.463296,94.3470744 154.455313,94.23724 154.363807,94.2372736 C154.221464,94.2373258 153.991965,94.4022253 153.675305,94.7320965 C153.358644,95.0621272 152.761936,95.7566433 151.885162,96.8166077 C150.574342,98.4039462 149.70818,99.4883767 149.28665,100.067837 C149.061808,100.384037 148.931247,100.602672 148.894962,100.723673 C148.858678,100.84468 148.892665,100.967933 148.996925,101.093415 C149.220072,101.375744 149.040837,101.870472 148.459215,102.578153 C148.103297,103.011519 147.719246,103.390117 147.307051,103.713934 C146.894856,104.037953 146.52335,104.253967 146.192524,104.361873 C145.530871,104.577844 144.727274,104.689825 143.781708,104.697663 C142.881895,104.705122 142.332701,104.546031 142.13411,104.220312 C141.960314,103.925987 142.172904,103.412245 142.771888,102.679624 C143.223296,102.12794 143.779462,101.634022 144.440401,101.197899 C144.752766,100.995907 145.004182,100.812776 145.194657,100.648466 C145.385131,100.484203 145.607726,100.259273 145.862445,99.9737183 C146.733749,99.0120499 148.237132,97.2350408 150.37264,94.6479836 C150.763281,94.1756498 151.017819,93.8373233 151.13626,93.632811 C151.254701,93.4283356 151.289752,93.263189 151.241412,93.1373317 C151.123536,92.8436249 151.29464,92.4190603 151.754729,91.8639571 C152.171414,91.3615583 152.654045,90.9303398 153.202638,90.5702756 C153.751231,90.2105139 154.465404,89.8541692 155.34518,89.5013624 C156.527391,89.0247672 157.397343,88.7826413 157.955062,88.7743322 Z M164.321428,97.2392195 L160.737445,97.2488246 C160.579851,97.2492469 160.383864,97.3903529 160.149479,97.6722227 C159.585219,98.3512129 159.232717,98.9908383 159.091964,99.5907756 C158.951211,100.190842 159.086722,100.489857 159.498501,100.487732 C159.742518,100.486472 160.093517,100.388316 160.55151,100.19336 C161.009503,99.9985396 161.452276,99.7597076 161.879841,99.4768937 C162.261029,99.2256536 162.502456,99.0998816 162.60413,99.0994641 C162.736306,99.0989213 162.727045,99.265274 162.576348,99.598585 C162.42565,99.9319731 162.202729,100.276193 161.907578,100.631318 C161.282551,101.383877 160.450473,102.112444 159.411319,102.817335 C157.569982,104.072014 156.120631,104.705084 155.063224,104.713937 C153.995649,104.722876 153.630462,104.087425 153.967651,102.808059 C154.137732,102.179076 154.477324,101.4185 154.986436,100.526703 C155.667443,99.3421911 156.550491,98.0955821 157.635607,96.787542 C159.094003,95.0329505 160.664068,93.4593309 162.345848,92.0664005 C163.8002,90.863485 165.120454,89.9689392 166.306649,89.3815249 C167.198465,88.9390915 167.946841,88.7192839 168.5518,88.721636 C169.517701,88.7253914 169.869942,89.2849911 169.608532,90.4007902 C169.48037,90.9588644 169.199314,91.6202058 168.765357,92.3851361 C168.275092,93.2540582 167.682732,94.1029441 166.988258,94.9319916 C166.423997,95.6062464 165.893116,96.1591722 165.395598,96.5905935 C164.89808,97.0223447 164.540027,97.2386337 164.321428,97.2392195 Z M163.370696,94.3274764 L164.140871,94.3271385 C164.466227,94.3269957 164.884986,94.0206779 165.397161,93.4085381 C165.865931,92.8486977 166.16909,92.3927546 166.306647,92.0404477 C166.444204,91.6882155 166.385891,91.5119101 166.131707,91.5114702 C165.84702,91.5109775 165.432364,91.7384671 164.887725,92.1942329 C164.379296,92.6192676 163.942789,93.049861 163.57819,93.4859596 C163.317762,93.7976085 163.172322,94.0158263 163.141864,94.1405305 C163.111406,94.2652405 163.187683,94.3275567 163.370696,94.3274764 Z M171.263565,101.473467 L172.626657,98.9144611 C172.929777,98.3362175 173.102389,97.9904673 173.144501,97.8770024 C173.186612,97.763545 173.164457,97.7069522 173.078034,97.707217 C172.895021,97.7077776 172.420461,98.0493972 171.65434,98.7326918 L166.63074,103.225163 C165.666206,104.092271 165.031438,104.527564 164.726417,104.530096 C164.53832,104.531657 164.476158,104.399936 164.539927,104.134949 C164.603696,103.869987 164.808839,103.419935 165.155363,102.785013 L169.365355,95.0217913 C170.034471,93.771537 170.422862,92.9559357 170.530542,92.5740401 C170.567763,92.408906 170.516763,92.2488422 170.377541,92.0938118 C170.326467,92.0214715 170.353052,91.8795443 170.457297,91.668056 C170.561543,91.4566018 170.722175,91.222071 170.939198,90.9644958 C171.607629,90.171709 172.378867,89.6171983 173.252935,89.3006549 C174.123406,88.9948257 174.919571,88.8434472 175.641455,88.846202 C177.263152,88.8523905 177.557481,89.4644005 176.524451,90.6837238 C176.33347,90.9093601 175.963868,91.252913 175.415631,91.7146383 C175.307001,91.8070322 175.209283,91.9045989 175.122473,92.0073402 C174.931493,92.2334198 174.577854,92.7938506 174.061547,93.6891376 C173.466487,94.7087913 173.26555,95.2188539 173.458731,95.2186349 C173.570572,95.2185081 173.929933,94.9607008 174.536825,94.4455691 C175.143717,93.9309224 175.58171,93.5144101 175.850819,93.1957561 C176.119928,92.8772355 176.29665,92.6229986 176.380992,92.4329566 C176.465334,92.2429395 176.538779,91.942478 176.601329,91.5315743 C176.636826,91.2850473 176.797807,90.9925741 177.084278,90.654249 C177.76139,89.855172 178.6108,89.3345637 179.632533,89.0920691 C180.255864,88.9406518 180.900502,88.8662709 181.566466,88.8688123 C182.334103,88.8717416 182.777536,89.0038063 182.89678,89.2649739 C183.016024,89.5260929 182.828242,89.9472487 182.333429,90.5288286 C182.133768,90.7636287 181.952839,90.9524956 181.790636,91.0954071 C181.628434,91.2383549 181.302116,91.4936404 180.811673,91.8614556 C180.651582,91.9841281 180.48907,92.1426789 180.324132,92.3371272 C180.089747,92.6135347 179.711865,93.1974359 179.190474,94.0893161 C178.734071,94.869024 178.589752,95.2589818 178.757514,95.2587855 C178.940527,95.2585714 179.59285,94.7606473 180.714503,93.7663022 C181.551558,93.0191231 182.074249,92.5232248 182.282591,92.2779198 C182.447529,92.0837767 182.622275,91.7823223 182.806834,91.3735984 C182.932975,91.0875555 183.139277,90.7762025 183.425748,90.439601 C183.877156,89.9095053 184.30913,89.543135 184.721682,89.3402967 C185.308952,89.0463752 185.922851,88.900737 186.563395,88.9031736 C186.995509,88.9048174 187.322897,88.9722912 187.545568,89.1055623 C187.669301,89.1875046 187.68583,89.3530876 187.595156,89.6023548 C187.504482,89.8516575 187.320253,90.1389325 187.042463,90.4642682 C186.764673,90.789746 186.459121,91.0643241 186.125798,91.287992 C186.056974,91.3388551 185.757517,91.4811087 185.227416,91.7148988 C184.917786,91.8573207 184.58912,92.0610484 184.241407,92.3261446 C183.893695,92.5913852 183.342613,93.0661491 182.588145,93.7509482 L174.37945,101.223266 C171.979888,103.42326 170.566613,104.528069 170.139583,104.531629 C169.95657,104.533155 169.951984,104.298236 170.125826,103.826961 C170.299668,103.355812 170.67891,102.571106 171.263565,101.473467 Z M205.918794,82.9021812 C206.661013,82.9085985 207.100017,83.2330916 207.23582,83.8755658 C207.300748,84.1766875 207.396757,84.3277123 207.523849,84.3286679 C207.615356,84.329356 207.801844,84.2856855 208.08332,84.1976854 C208.175451,84.1683481 208.262184,84.153993 208.343523,84.1546163 C208.607875,84.1566421 208.63084,84.3970476 208.41242,84.8759654 C207.893466,86.0340968 206.887445,87.471281 205.394326,89.1899176 C204.343934,90.4014176 203.364713,91.2883735 202.456635,91.8498979 C201.967441,92.1510454 201.580507,92.3015404 201.29582,92.3012115 C201.036552,92.3009119 200.921071,92.1899957 200.949373,91.968467 C200.977675,91.7469483 201.158635,91.3545356 201.492256,90.7914336 C201.95945,89.9975551 202.274159,89.4275697 202.436391,89.0810849 C202.598624,88.7346896 202.702139,88.4208236 202.746941,88.1394253 C202.844127,87.4560546 202.623287,87.1129919 202.084416,87.1101476 C201.560796,87.1073838 200.821851,87.4786637 199.867558,88.2248506 C198.913266,88.9721737 197.893577,89.9753203 196.808461,91.2350942 C195.315342,92.9720864 194.169254,94.5660806 193.370162,96.0154163 C192.311981,97.9540605 192.342095,98.9223031 193.460507,98.9177508 C193.872286,98.9160748 194.397437,98.7772729 195.035975,98.5015477 C195.674513,98.2260979 196.292254,97.8701316 196.889217,97.4337389 C197.39491,97.068687 197.708756,96.8861218 197.830765,96.8858196 C198.008694,96.885379 198.02014,97.0493837 197.865102,97.377899 C197.710064,97.7064948 197.432888,98.1037482 197.033565,98.5698307 C196.530071,99.1579184 195.876856,99.817953 195.073901,100.550297 C194.270945,101.283565 193.566968,101.860087 192.961949,102.279485 C192.707616,102.453522 192.356267,102.608025 191.907891,102.743015 C191.653944,102.81583 191.236627,103.006556 190.655927,103.315385 C189.287195,104.047344 188.19615,104.417305 187.38276,104.424116 C186.533784,104.431224 186.012892,104.05345 185.820069,103.290609 C185.594158,102.405439 185.977793,101.042398 186.970986,99.2038247 C187.930943,97.4190779 189.23993,95.5552109 190.897987,93.6139497 C192.825152,91.3639744 194.933783,89.3188545 197.223942,87.4784239 C199.214252,85.884802 201.064554,84.6728357 202.774904,83.8404178 C204.077786,83.2077336 205.125739,82.8953243 205.918794,82.9021812 Z M213.800608,88.8870562 C214.730923,88.8906844 215.134505,89.3656794 215.011366,90.3121957 C214.924349,90.9898194 214.560245,91.8714761 213.919046,92.957959 C213.244609,94.0954764 212.369186,95.2843873 211.292751,96.5254056 C209.40899,98.7023201 207.301564,100.561051 204.970408,102.101002 C202.745773,103.575318 201.010729,104.319613 199.765225,104.330041 C198.550224,104.340215 198.156839,103.656544 198.585058,102.279708 C198.998889,100.944267 200.125966,99.2029468 201.966323,97.0597168 C204.015021,94.6811905 206.137773,92.7421732 208.334642,91.2407615 C210.641627,89.6649463 212.463597,88.8818419 213.800608,88.8870562 Z M210.182642,92.3401727 C209.95896,92.3399196 209.638699,92.5022307 209.221852,92.8272732 C208.805004,93.1525322 208.362201,93.5857213 207.893431,94.1269947 C207.372576,94.7288841 206.720111,95.5496681 205.936018,96.5899696 C205.151925,97.6315679 204.491449,98.5558557 203.954569,99.3624029 C203.400328,100.189846 203.301137,100.602867 203.656996,100.600932 C204.109444,100.598472 204.82613,100.0268 205.807075,98.8872276 C206.536272,98.0412595 207.308098,97.0808292 208.122574,96.0062183 C208.93705,94.933 209.553751,94.061434 209.972695,93.390786 C210.395236,92.7105847 210.465218,92.3605008 210.182642,92.3401727 Z M213.963631,98.2919411 C214.446582,98.2906294 214.579513,98.6190153 214.36243,99.2772803 C214.14175,99.9457545 213.57133,100.810473 212.651151,101.872452 C211.79174,102.865709 210.886425,103.705771 209.93518,104.392418 C209.006381,105.059903 208.300516,105.396029 207.817566,105.400073 C207.334615,105.404117 207.201683,105.074538 207.418766,104.411497 C207.648127,103.728564 208.205527,102.873539 209.090981,101.847293 C209.993798,100.80241 210.912133,99.9488182 211.846017,99.2861054 C212.766135,98.6343951 213.472,98.3032473 213.963631,98.2919411 Z" id="Boston-Brew-Co.-Copy" fill="#943126"></path>
            <path d="M63.6797401,105.027714 L62.6449023,105.052851 C61.9107402,105.081198 61.3610856,105.1193 60.9959221,105.167158 C60.6576634,105.226049 60.4249915,105.256023 60.2978992,105.257063 C59.9877942,105.2596 59.8757913,105.086377 59.9618872,104.737421 C60.0530667,104.388469 60.285293,103.971146 60.6585728,103.485599 C60.9016388,103.169567 61.1256598,102.921121 61.3306426,102.74021 C61.5356254,102.559352 61.9127791,102.276525 62.4621151,101.891905 C62.7831606,101.66581 63.1561078,101.313439 63.5809678,100.834923 C64.0058278,100.356695 64.8589538,99.331137 66.1403715,97.7601516 C68.1294036,95.3196177 70.5084918,92.323226 73.2777075,88.7762774 C74.2933759,87.4788972 74.9289098,86.6176103 75.1843283,86.1910844 C75.4397468,85.7647156 75.5310811,85.4125073 75.4583339,85.1343093 C75.3658764,84.8226224 75.5540298,84.3683408 76.0227998,83.771785 C76.4047606,83.2860016 76.8176706,82.8895337 77.2615423,82.5823168 C77.705414,82.2752985 78.0849386,82.1231872 78.4001273,82.1258293 C78.5729728,82.1272782 78.7810888,82.1456483 79.0244815,82.1809315 C79.4371225,82.2286903 79.9027042,82.254711 80.4212406,82.2590141 C80.8025173,82.2621782 81.5783927,82.2354327 82.74889,82.178861 C83.1170264,82.159844 83.443433,82.1515349 83.7281197,82.1539247 C84.4042504,82.1596004 84.8561494,82.2820223 85.0838302,82.5211353 C85.311511,82.76017 85.3564977,83.1604094 85.2187919,83.7220083 C84.9964765,84.6362348 84.2820052,85.8569324 83.0753564,87.3859268 C82.4763724,88.1459194 81.8188765,88.887002 81.1028488,89.6092635 C80.386821,90.3322745 79.7349885,90.9093906 79.1473316,91.3403416 C78.7263365,91.6499697 78.4160129,91.9322081 78.2163516,92.1869791 C77.9993284,92.4639875 77.9237876,92.6968195 77.9897268,92.8854038 C78.1201188,93.2514289 78.0170638,93.8668778 77.6805587,94.732135 C77.3281782,95.6311194 76.6224621,96.7588222 75.563389,98.1164837 C74.3133355,99.7216264 72.9049211,101.191349 71.3381034,102.525773 C69.268565,104.290892 67.5424399,105.181033 66.1596763,105.192329 C65.9715798,105.193866 65.530673,105.169494 64.8369426,105.119171 C64.2093002,105.068259 63.8235699,105.037762 63.6797401,105.027714 Z M78.334037,86.8651489 L75.6516441,90.2844631 C75.2262786,90.8279039 74.9585637,91.2107828 74.8484913,91.4328879 C74.7384189,91.6550282 74.7621795,91.7662226 74.9197739,91.7664481 C75.295967,91.7669865 75.770512,91.5149632 76.3434233,91.0106831 C76.9163346,90.5068197 77.6238046,89.7180997 78.4658545,88.6451661 C79.2818616,87.6066613 79.8218845,86.8033193 80.0859394,86.2343597 C80.3499943,85.6656174 80.3142606,85.3803179 79.978737,85.3782895 C79.8008079,85.3772139 79.5928925,85.4839602 79.3549846,85.6985872 C79.1170767,85.9132884 78.7767643,86.3020668 78.334037,86.8651489 Z M70.8337538,96.4592103 L69.5967279,98.0515126 C68.4595265,99.5178057 67.7525916,100.492672 67.4759018,100.974497 C67.1992121,101.456512 67.2082941,101.696751 67.5031481,101.695077 C68.2758689,101.690691 69.4348144,100.691013 70.9800194,98.69931 C72.9071851,96.2214354 73.4386464,94.9854617 72.5744191,94.9862241 C72.3507368,94.9864215 72.113219,95.0924327 71.8618587,95.3043182 C71.6104983,95.51628 71.2678001,95.9011726 70.8337538,96.4592103 Z M90.1796608,88.3915176 C91.109976,88.3951458 91.5135582,88.918365 91.3904193,89.9613313 C91.3034016,90.7079928 90.9392984,91.6794988 90.2980987,92.8766453 C89.6236618,94.1299027 88.7482391,95.4396279 87.6718042,96.8065387 C85.7880431,99.2037652 83.6806166,101.249809 81.3494614,102.94408 C79.124826,104.565609 77.3897823,105.383509 76.1442784,105.393938 C74.9292765,105.404111 74.5358915,104.651404 74.9641114,103.136492 C75.3779424,101.667036 76.5050193,99.7510937 78.3453757,97.392628 C80.3940745,94.7744998 82.5168262,92.6395399 84.7136946,90.9858388 C87.0206799,89.2496121 88.8426504,88.3863033 90.1796608,88.3915176 Z M86.561695,92.1964207 C86.3380127,92.1961676 86.0177524,92.3749765 85.6009045,92.733015 C85.1840566,93.09127 84.7412543,93.5683686 84.2724842,94.1644661 C83.7516286,94.8272712 83.0991641,95.7310517 82.3150712,96.8764328 C81.5309783,98.0231108 80.8705019,99.0405475 80.3336222,99.9283157 C79.7793806,100.83901 79.6801904,101.293656 80.0360487,101.291721 C80.488497,101.289262 81.2051828,100.660228 82.1861276,99.4059309 C82.9153254,98.4746808 83.6871508,97.4172944 84.501627,96.2340504 C85.3161031,95.0521991 85.9328039,94.0923066 86.351748,93.353636 C86.7742892,92.6043969 86.8442709,92.2187793 86.561695,92.1964207 Z M98.5087486,88.4448499 C98.7629331,88.4458381 99.0817588,88.5671138 99.4652353,88.8085794 C99.5474365,88.8525125 99.6266636,88.8746132 99.7029189,88.8748859 C99.7893416,88.875195 100.035228,88.7779316 100.440586,88.5831803 C100.635639,88.4858189 100.773833,88.437308 100.855172,88.4376253 C101.089022,88.4385373 101.069326,88.7599069 100.796085,89.401937 C100.581261,89.913577 100.291792,90.4742506 99.9276691,91.084098 C99.5635458,91.6942712 99.2035305,92.22293 98.8476125,92.6700208 C98.5003754,93.1064316 98.1405684,93.4693467 97.7681805,93.7587286 C97.3957926,94.0482682 97.1028456,94.193129 96.8893306,94.1931971 C96.7114015,94.1932538 96.6263253,94.100359 96.6340996,93.9145115 C96.6418739,93.7286661 96.7424539,93.3187534 96.9358426,92.6848939 C97.1487039,92.007526 97.148377,91.6687633 96.9348621,91.6684373 C96.7925188,91.6682199 96.580263,91.7799525 96.2980883,92.0037077 C96.0159137,92.2275553 95.7532973,92.4925317 95.5102314,92.7986572 C95.084866,93.3346386 94.9244792,93.8380861 95.0290662,94.3087113 C95.2284593,95.1403235 95.1662811,96.0487097 94.8425298,97.034428 C94.5691398,97.8671749 93.955003,98.8876771 93.0001011,100.096975 C91.7934523,101.627489 90.4763794,102.908849 89.0488431,103.940677 C87.8119006,104.841042 86.807084,105.295053 86.0343632,105.301523 C85.8360993,105.303183 85.5315879,105.234099 85.1208199,105.094204 C84.7231922,104.976171 84.4938797,104.917376 84.4328754,104.91787 C84.3667874,104.918404 84.277512,104.935672 84.1650465,104.969678 C83.9828958,105.01529 83.8587783,105.03837 83.7926904,105.03891 C83.553757,105.040861 83.4698328,104.909102 83.5409154,104.643647 C83.6536785,104.234433 83.9661575,103.589382 84.4783621,102.708912 C84.9905666,101.829092 85.4940677,101.073968 85.9888806,100.443365 C86.7875258,99.4265019 87.3698525,98.9178324 87.7358782,98.916461 C87.8782215,98.9159277 87.9288272,99.0175018 87.8876968,99.2211955 C87.8465663,99.4249014 87.6694051,99.9675558 87.3562076,100.849466 C87.1826781,101.334695 87.0929269,101.668185 87.0869512,101.849858 C87.0809756,102.031532 87.1567838,102.12189 87.3143782,102.120933 C87.4821399,102.119914 87.6928127,102.022355 87.9464027,101.828307 C88.1999927,101.634329 88.4526573,101.377196 88.7044042,101.056935 C89.0950459,100.560207 89.2552395,100.108789 89.1849896,99.7024237 C89.0523088,98.8345761 89.1688237,97.9383326 89.5345377,97.0141602 C89.9002517,96.0904788 90.5605498,95.0242539 91.5154517,93.8163444 C92.548482,92.5114961 93.6238156,91.3894842 94.7414846,90.4499536 C96.3379423,89.1088688 97.5936844,88.4412921 98.5087486,88.4448499 Z M105.82166,92.7407222 L101.420452,98.2605836 C100.899596,98.9161847 100.549221,99.4516416 100.369314,99.8666779 C100.189408,100.281823 100.276874,100.442889 100.597899,100.460225 C99.6318954,101.700225 98.1157499,103.450037 97.0901202,104.645715 C96.3187566,105.036849 95.6278698,105.221196 95.0736268,105.225837 C94.2602364,105.232648 93.9997982,104.739206 94.2923041,103.745815 C94.5848101,102.752847 95.3734398,101.442836 96.658217,99.8177044 L102.674069,92.2485985 C102.87373,91.9985282 102.983452,91.8436128 103.003237,91.783794 C103.023021,91.723977 102.974452,91.693981 102.857527,91.6938039 L102.072101,91.692614 C101.924674,91.6923907 101.871861,91.6405828 101.91366,91.5371936 C101.95546,91.4338108 102.128273,91.1918467 102.432105,90.811417 L103.005044,90.0945011 C103.270555,89.7688432 103.519994,89.5302819 103.753368,89.3787536 L110.995987,84.7289861 C111.160538,84.6327392 111.306358,84.585056 111.43345,84.5859172 L112.051115,84.5901028 C112.178208,84.5909641 112.213444,84.6533457 112.156824,84.7772573 C112.100205,84.9011793 111.924322,85.1459498 111.629171,85.5116885 L109.871292,87.6932966 C109.610864,88.0169832 109.465736,88.2275418 109.435902,88.3248883 C109.406069,88.4222391 109.469949,88.4712226 109.627543,88.4718373 C109.919722,88.4729767 110.138856,88.4738314 110.284946,88.4744011 C110.081921,88.7392621 107.667647,91.745226 107.47578,91.9610898 C107.32843,91.9608948 107.107406,91.9606024 106.812707,91.9602125 C106.670364,91.9600241 106.530371,92.0141032 106.392725,92.1224677 C106.255079,92.2308543 106.064726,92.4369153 105.82166,92.7407222 Z" id="Boston-Brew-Co.-Copy-2" fill="#5A2D29"></path>
            <text id="Boston-Brew-Co." transform="translate(135.352941, 100.264706) rotate(360.000000) translate(-135.352941, -100.264706) " font-family="CooperBlackMS, Cooper Black" font-size="14.9117647" font-weight="700" letter-spacing="1.6775735" fill="#F3EDDD">
                <tspan x="59.6470588" y="105.764706">Boston Brew Co.</tspan>
            </text>
            <path d="M8.11560354,147.154344 L8.12557295,146.375048 C15.2684558,149.608551 43.2295388,149.018312 51.606111,146.27283 L51.6210747,147.145541 C42.9936159,149.973254 15.5512986,150.5204 8.11560354,147.154344 Z" id="Path-2" fill="#A78F76" fill-rule="nonzero"></path>
            <path d="M8.31728681,86.6933051 L8.33407153,85.5711136 C11.7496448,86.2704114 46.457035,86.3757243 50.9789327,85.5161901 L50.9799878,86.6948653 C46.3124583,87.5820816 11.8806201,87.422855 8.31728681,86.6933051 Z" id="Path-2-Copy" fill="#A78F76" fill-rule="nonzero"></path>
        </g>
        <g id="coffee-cup" transform="translate(142.088235, 168.470588)">
            <polygon id="Path-53" stroke="#1C1B1B" stroke-width="9.17647059" fill="#1C2E35" points="0.147058824 0.147058824 0.147058824 169.908877 216.938131 169.911765 216.942787 0.147058824"></polygon>
            <path d="M28.6575588,0.0281137578 C14.2218229,4.75073262 -4.44651101,41.3674219 41.6763789,27.3587274 C188.715655,-10.6782356 142.640102,59.4227843 137.66053,66.0745764 C142.419181,67.1711142 159.641276,68.1515481 163.050219,68.409557 C255.978577,-11.7812237 137.150962,-3.20404012 83.1480855,9.70285543 C47.1461677,18.3074525 38.1070071,15.1118921 56.0306038,0.116174488 C48.9395474,0.0789797589 43.2234378,0.0510725526 38.8822751,0.0324528694 L217.05834,0.108066296 L216.979204,27.5815425 C208.992525,37.1623138 206.460077,52.8024395 209.38186,74.5019195 C212.303643,96.2013995 202.766142,101.610659 180.769358,90.7296971 L117.186331,67.7300936 C116.247819,34.6696782 96.0250738,25.3903382 56.5180963,39.8920737 C-2.7423699,61.644677 0.347278966,26.1907773 0.180810913,24.8036516 C0.0698322107,23.8789012 0.0698322107,15.6163603 0.180810913,0.0160289445 L28.6575588,0.0281137578 Z" id="Combined-Shape" fill="#4E7888"></path>
            <path d="M95.4618646,108.294673 L181.536142,111.546363 L181.780645,111.631925 C203.343082,119.177524 213.379736,128.260426 211.122883,139.148722 L211.098273,139.25147 C206.610327,155.736978 175.740242,165.719379 138.448698,165.321804 C96.6004462,164.195907 63.5692033,151.625419 64.3072967,133.622968 C64.9689044,122.366528 75.4181773,114.01309 95.1985218,108.369804 L95.4618646,108.294673 Z" id="Path-36" stroke="#D8D8D8" stroke-width="3.44117647" fill="#AB9D94"></path>
            <path d="M94.3422019,137.176299 C94.4072442,145.231138 110.253156,150.271764 120.399018,151.657319 C130.54488,153.042873 100.912611,155.476123 94.6224674,154.773094 C90.3386938,152.99107 86.7893573,150.544384 83.9744579,147.433037 C86.9405905,141.489112 90.3965052,138.0702 94.3422019,137.176299 Z" id="Path-42" fill="#887267"></path>
            <path d="M94.8838803,154.88063 C94.8838803,154.88063 53.4031657,139.895768 76.3912019,121.562099 C64.6110609,138.981765 94.8838803,154.88063 94.8838803,154.88063 Z" id="Path-37" fill="#F8E2CD"></path>
            <path d="M147.591371,148.511172 L190.854858,155.057009 C203.048757,149.505384 209.308586,143.155015 209.634345,136.005903 C209.176819,130.273184 204.979369,125.159664 197.041994,120.665343 L178.632059,122.285075 L147.591371,148.511172 Z" id="Path-41" fill="#887267"></path>
            <path d="M191.783785,149.065781 C192.982374,149.048963 215.4452,139.050815 200.036123,127.470588 C209.864874,139.343368 192.221007,148.784575 191.783785,149.065781 Z" id="Path-38" fill="#F8E2CD"></path>
            <path d="M140.274876,97.0595858 C161.335437,97.9896028 184.717499,89.0842943 186.150254,83.5296796 C186.943342,76.0440679 164.1255,65.9744884 139.418879,65.9744884 C114.712258,65.9744884 93.8425991,73.3521477 94.2229015,81.654835 C94.603204,89.9575223 119.214316,96.1295689 140.274876,97.0595858 Z" id="Oval" stroke="#D8D8D8" stroke-width="2.29411765" fill="#887267"></path>
            <path d="M137.794118,78.1470588 C126.199764,79.014718 108.503951,83.2812182 137.488172,86.1764706 C116.728742,82.680629 131.188429,79.1213932 137.794118,78.1470588 Z" id="Path-44-Copy-3" fill="#F8E2CD"></path>
            <path d="M156.499985,74.7058824 C173.92331,76.9780249 174.81398,83.8470545 153.852941,87.8742343 C179.364506,87.0379503 180.630522,75.9277663 156.499985,74.7058824 Z" id="Path-44-Copy-2" fill="#F8E2CD"></path>
            <path d="M144.421167,78.1470588 C157.841015,79.5324993 158.527029,83.7208949 142.382353,86.1764706 C162.031949,85.6665459 163.007064,78.8921034 144.421167,78.1470588 Z" id="Path-44-Copy-4" fill="#F8E2CD"></path>
            <path d="M178.03409,122.034859 C185.675776,123.778704 191.246666,123.885199 194.74676,122.354344 C206.160928,120.50853 210.785813,103.008846 196.951658,95.7088362 C192.911146,94.2719032 189.082575,95.3830514 185.465943,99.0422808 L186.664687,91.6779241 C194.9749,86.7239551 202.152965,88.2378345 208.198883,96.2195624 C215.094812,109.543441 211.234892,123.017613 198.270546,128.148724 C183.692895,132.595536 175.959236,129.51396 173.472202,129.593607 C173.716991,128.767745 175.23762,126.248163 178.03409,122.034859 Z" id="Path-44" stroke="#A9A2A2" stroke-width="1.14705882" fill="#B8B1AB"></path>
            <path d="M176.568058,124.075514 L173.242263,129.479312 C191.313675,132.638858 203.503184,128.623337 209.810789,117.432751 C201.304572,127.213466 190.223661,129.427721 176.568058,124.075514 Z" id="Path-45" fill="#A9A2A2"></path>
            <path d="M189.895146,95.1417869 C194.791087,90.8707214 207.199709,92.3419548 208.600659,105.821665 C210.001608,119.301376 193.339639,124.423229 189.834017,123.47558 C214.228082,121.926089 207.121747,90.24496 189.895146,95.1417869 Z" id="Path-46" stroke="#A9A2A2" stroke-width="1.14705882" fill="#D8D8D8"></path>
            <path d="M208.164191,102.707919 C208.124619,100.15408 207.439304,97.1927134 206.108244,93.8238193 C200.581817,88.3674788 194.081458,87.740733 186.607167,91.9435819 C185.97166,96.7916827 186.153276,95.7504204 185.838476,97.9938888 C199.523426,85.2864133 207.905499,98.7590365 208.164191,102.707919 Z" id="Path-47" fill="#A9A2A2"></path>
            <path d="M108.428212,140.039629 C112.997859,146.618911 149.49242,152.971982 166.187536,140.039629 C170.798587,133.646164 186.667632,112.951976 186.22632,85.079656 C159.461824,107.303792 95.2090573,95.766065 94.2032301,81.8884773 C92.1948181,110.128412 102.121508,131.745778 108.428212,140.039629 Z" id="Path-39" stroke="#D8D8D8" stroke-width="2.29411765" fill="#B8B1AB"></path>
            <path d="M111.863525,137.959107 C112.324995,138.151906 100.267061,122.545544 98.3764666,102.291148 C106.882864,127.089722 121.12089,140.190883 141.090544,141.594632 C131.424967,143.990348 121.682628,142.778506 111.863525,137.959107 Z" id="Path-43" fill-opacity="0.464758832" fill="#887267"></path>
            <path d="M146.622788,132.223553 C146.758295,126.242303 139.118929,113.600759 144.889064,98.6799471 C159.9541,97.7832795 171.596029,96.291544 184.991016,87.5109337 C185.357934,93.904063 181.943036,104.966629 174.746321,120.698632 C165.426087,130.637282 156.051576,134.478922 146.622788,132.223553 Z" id="Path-40" fill="#A1938B"></path>
            <path d="M129.078732,78.0279903 C128.627598,77.8043421 105.377789,69.5465623 130.013734,67.9065014 C177.168246,66.5008847 195.483583,83.3147873 169.586487,91.0252799 C129.038661,101.181329 90.2505388,84.29767 98.8554089,78.262453 C107.895247,70.7027748 129.529867,78.2516385 129.078732,78.0279903 Z" id="Path-48" fill="#D7CBBF"></path>
            <path d="M128.091132,79.4291007 C113.712995,78.1588537 111.482931,86.3089575 146.970588,84.854971 C139.482881,81.9118059 133.311015,80.3892875 128.091132,79.4291007 Z" id="Path-49" fill="#A07857"></path>
            <path d="M115.45736,78.9900167 C111.913103,78.9244605 94.9646634,85.5612305 121.301009,90.3778192 C138.858572,93.5888784 156.153769,91.7585747 173.186601,84.886908 C161.611448,87.5997854 155.952726,88.4319797 156.210434,87.383491 C156.468143,86.3350022 159.720162,84.6209825 165.966491,82.2414317 C169.88568,79.1007041 166.633661,76.2743485 156.210434,73.762365 C145.787208,71.2503814 147.460373,71.2503814 161.229931,73.762365 C168.913031,75.4079313 173.459026,77.9249029 174.867917,81.3132797 C177.426071,78.3018571 173.758266,74.6484072 162.776516,72.1473218 C142.860744,67.6115195 119.832788,71.5984814 127.432607,75.151379 C131.934816,73.4778958 141.845057,71.7626296 152.178304,75.1338302 C158.079802,76.6112644 165.172238,80.7636352 153.398222,84.1091608 C152.765554,84.6836904 152.476704,77.9857827 149.120731,77.9104299 C147.270286,77.4061448 144.87194,79.0091072 144.433073,81.3132797 C145.389873,76.6789818 131.682015,73.5872161 132.311066,78.6990411 C131.484147,79.4321606 149.299037,83.875752 152.178304,86.5219295 C150.845555,88.4706654 130.041332,88.0807118 126.371736,87.383491 C107.372778,84.7839931 118.588502,79.2290086 115.45736,78.9900167 Z" id="Path-50" fill="#A07857"></path>
            <g id="Boston-Beans-Co." transform="translate(35.705882, 83.088235) rotate(-90.000000) translate(-35.705882, -83.088235) " fill="#E0E0E0" fill-opacity="1">
                <use filter="url(#filter-4)" xlink:href="#text-3"></use>
                <use xlink:href="#text-3"></use>
            </g>
        </g>
    </g>
</svg>